<?xml version="1.0" encoding="UTF-8"?>
<svg version="1.1" xmlns="http://www.w3.org/2000/svg" width="99" height="100">
<path d="M0 0 C0.83121368 -0.00832352 1.66242737 -0.01664703 2.51882935 -0.02522278 C5.27057561 -0.04934644 8.02208494 -0.05809771 10.77392578 -0.06469727 C12.68580192 -0.07366173 14.59767733 -0.08278354 16.509552 -0.09205627 C20.51940619 -0.10855521 24.52917679 -0.11624804 28.5390625 -0.11914062 C33.67637596 -0.12452565 38.81290356 -0.16220671 43.94999504 -0.20788479 C47.89969753 -0.23763251 51.84921026 -0.24486368 55.79901505 -0.24586678 C57.69285812 -0.25007356 59.58670153 -0.2625262 61.48043442 -0.28338432 C64.1307726 -0.310252 66.77928251 -0.3054877 69.4296875 -0.29296875 C70.2111615 -0.30780304 70.9926355 -0.32263733 71.79779053 -0.33792114 C75.8487783 -0.2834529 77.62360389 0.12678184 80.80764771 2.71885681 C84.08554623 6.88350953 84.00831788 9.92421639 84.03710938 15.05737305 C84.04937561 16.25767403 84.04937561 16.25767403 84.06188965 17.48222351 C84.08675322 20.13714853 84.10326309 22.79202 84.11767578 25.44702148 C84.12299946 26.35340111 84.12832314 27.25978073 84.13380814 28.1936264 C84.16054536 32.99211278 84.17991743 37.7905731 84.19433594 42.58911133 C84.21097502 47.54360157 84.25574476 52.49742549 84.30670738 57.45166397 C84.34038047 61.26241817 84.35191348 65.07301432 84.35756302 68.8839035 C84.36427655 70.70994909 84.37950133 72.53598424 84.40345383 74.36188507 C84.4351072 76.92108746 84.43514227 79.47849469 84.42773438 82.0378418 C84.44413971 82.78923935 84.46054504 83.5406369 84.47744751 84.31480408 C84.43204692 88.15563328 83.90924149 90.71424687 81.55776978 93.69818115 C76.8317823 98.24074608 73.55895531 98.60301291 67.12573242 98.58105469 C66.35289413 98.58616562 65.58005585 98.59127655 64.78379822 98.59654236 C62.23225127 98.6104282 59.68097474 98.60948239 57.12939453 98.60717773 C55.35346883 98.61106518 53.57754405 98.61539995 51.80162048 98.62016296 C48.08020005 98.62762297 44.35887448 98.62733546 40.63745117 98.62207031 C35.87140343 98.61627554 31.10574428 98.63320784 26.33976078 98.65641499 C22.67229445 98.67115536 19.00492165 98.67202362 15.33743095 98.66890526 C13.58037992 98.6694183 11.82332363 98.67465292 10.06630135 98.68471718 C7.60799111 98.69707046 5.15043704 98.69029696 2.69213867 98.67871094 C1.96834015 98.68635468 1.24454163 98.69399841 0.49880981 98.70187378 C-5.36769245 98.64084151 -8.27285442 97.10646679 -12.43690491 93.12561035 C-14.66633813 89.46896541 -14.71102273 86.3548633 -14.6574707 82.19897461 C-14.66287369 81.39672958 -14.66827667 80.59448456 -14.67384338 79.76792908 C-14.68631961 77.12412274 -14.66984756 74.48140776 -14.65185547 71.83764648 C-14.65201048 69.99588972 -14.65349987 68.15413263 -14.65626526 66.31237793 C-14.65764875 62.45558217 -14.64509951 58.59915851 -14.62231445 54.74243164 C-14.59392998 49.80261732 -14.59666781 44.86342116 -14.60940456 39.9235611 C-14.61636474 36.12138606 -14.60856858 32.3193535 -14.59614754 28.51719666 C-14.59163634 26.69596402 -14.59129334 24.87471606 -14.59521294 23.05348206 C-14.59812849 20.50660939 -14.58160217 17.96058388 -14.55981445 15.41381836 C-14.56656693 14.28839882 -14.56656693 14.28839882 -14.57345581 13.14024353 C-14.51032024 8.69080692 -13.92072619 5.82993236 -11.15576172 2.30639648 C-7.38196478 -0.20946814 -4.37314982 0.00370036 0 0 Z " fill="#51157B" transform="translate(15.15576171875,-0.306396484375)"/>
<path d="M0 0 C1.35418267 0.97157969 2.69422036 1.96427933 4 3 C2.4404735 6.82792868 0.16368164 9.36359864 -3 12 C-5.49022296 11.92218053 -7.00406302 10.99808135 -9.25 9.9375 C-14.19028381 8.25331234 -18.35961609 8.42104097 -23.1875 10.125 C-27.48969716 12.99313144 -31.37772706 16.98570183 -33 22 C-33.62671056 28.26710564 -32.73289223 32.83578406 -29 38 C-23.69223873 42.31255603 -19.7331449 43.27609299 -12.96484375 43.23828125 C-10.17977277 42.9005291 -8.29098574 41.54978447 -6 40 C-5.01 40.495 -5.01 40.495 -4 41 C-6.3207248 43.55346865 -8.68619024 46.06076767 -11.0625 48.5625 C-12.04766602 49.64821289 -12.04766602 49.64821289 -13.05273438 50.75585938 C-18.06658557 55.96730077 -18.06658557 55.96730077 -22.6796875 56.12890625 C-31.64120479 53.08199037 -38.62750445 48.05995294 -43.25 39.75390625 C-46.54000522 32.61413798 -47.4839753 25.11058872 -45.26953125 17.484375 C-44.32047616 15.20664278 -43.24835259 13.12712711 -42 11 C-41.649375 10.37351562 -41.29875 9.74703125 -40.9375 9.1015625 C-37.14967577 3.07786979 -31.47136875 -0.30288639 -25.1875 -3.375 C-16.1336756 -5.15025969 -8.15462684 -4.41708954 0 0 Z " fill="#D29E31" transform="translate(67,21)"/>
<path d="M0 0 C1.47533203 0.02707031 1.47533203 0.02707031 2.98046875 0.0546875 C5.40406341 0.10174759 7.82715625 0.17348914 10.25 0.25 C10.25 6.85 10.25 13.45 10.25 20.25 C8.27 19.92 6.29 19.59 4.25 19.25 C4.146875 19.95125 4.04375 20.6525 3.9375 21.375 C3.15640997 24.64137647 1.82941257 27.2971852 0.25 30.25 C-0.08 30.25 -0.41 30.25 -0.75 30.25 C-0.75 23.98 -0.75 17.71 -0.75 11.25 C-7.35 11.25 -13.95 11.25 -20.75 11.25 C-18.77 8.94 -16.79 6.63 -14.75 4.25 C-13.90695313 3.05117188 -13.90695313 3.05117188 -13.046875 1.828125 C-9.1022324 -0.88213964 -4.64653897 -0.16086553 0 0 Z " fill="#CD9834" transform="translate(66.75,45.75)"/>
</svg>
