<svg xmlns="http://www.w3.org/2000/svg" width="14.011" height="14.286" viewBox="0 0 14.011 14.286"><g transform="translate(0 0)"><path d="M107.218,79.385A7.143,7.143,0,0,0,95.14,83.142l0,0c-.009.049-.015.1-.023.148-.011.066-.022.13-.03.2-.012.088-.02.176-.029.265s-.015.165-.02.248-.011.192-.013.288c0,.058,0,.115,0,.172,0,.082,0,.164,0,.246,0,.059.005.116.009.175.005.083.012.167.02.25.005.055.011.11.017.165.011.091.025.183.039.274.007.046.013.092.022.137q.036.2.085.407c.7-4.518,6.083-4,9.02-3.754,3.19.267,3.845-2.113,2.979-2.979Z" transform="translate(-95.021 -77.293)" fill="rgba(255,255,255,0.8)"/><path d="M122.382,143.911c.1-.012.192-.029.288-.044s.179-.027.268-.045.19-.045.285-.069.176-.041.263-.066c.123-.036.245-.079.366-.121.143-.049.283-.1.423-.163.083-.034.165-.067.247-.1s.181-.091.271-.138.158-.08.236-.125.176-.106.262-.161.153-.1.227-.146.168-.12.251-.182c.046-.034.094-.066.14-.1l-.022.01a6.939,6.939,0,0,0,1.864-2.166c-1.856,1.975-5.077,2.908-7.074,1.806-2.161-1.19-2.053-3.025.758-2.971a16.616,16.616,0,0,0,4.061-.158,3.635,3.635,0,0,0,2.682-4.681q-.032-.092-.066-.176c-.742,1.545-2.482,2.358-4.667,2.175l-.442-.037c-3.681-.324-6.681,0-7,3.2a4.361,4.361,0,0,0,1.79,3.488h0c.165.1.333.193.5.279.057.029.115.052.173.08.115.054.23.108.347.155.07.029.142.053.213.079.106.039.212.078.32.112.077.024.155.045.233.067.1.029.206.056.31.08.082.019.164.035.247.051.1.02.2.037.3.053.085.012.17.023.256.033s.2.02.3.027.174.011.261.014.2,0,.3,0,.176,0,.264-.005.2-.012.293-.021.179-.014.267-.025Z" transform="translate(-114.356 -129.678)" fill="rgba(255,255,255,0.8)"/></g></svg>