<svg xmlns="http://www.w3.org/2000/svg" width="137.092" height="138.495" viewBox="0 0 137.092 138.495"><g transform="translate(0.5 0.5)"><path d="M14.306,32.754H29.739a7.023,7.023,0,0,0,7.015-7.015V10.306H102.7a4.214,4.214,0,0,1,4.209,4.209v.393h2.806v-.393A7.023,7.023,0,0,0,102.7,7.5H35.351a1.413,1.413,0,0,0-.993.41L11.91,30.358a1.413,1.413,0,0,0-.41.993V87.472h2.806Zm15.433-2.806H16.29L33.948,12.29V25.739A4.214,4.214,0,0,1,29.739,29.948Z" transform="translate(-1.679 -7.5)" fill="#fbb03b" stroke="#fbb03b" stroke-width="1"/><path d="M51.978,21.709A4.214,4.214,0,0,0,47.769,17.5H19.709A4.214,4.214,0,0,0,15.5,21.709v5.612a4.214,4.214,0,0,0,4.209,4.209h28.06a4.214,4.214,0,0,0,4.209-4.209Zm-2.806,5.612a1.405,1.405,0,0,1-1.4,1.4H19.709a1.405,1.405,0,0,1-1.4-1.4V21.709a1.405,1.405,0,0,1,1.4-1.4h28.06a1.405,1.405,0,0,1,1.4,1.4Z" transform="translate(5.545 10.56)" fill="#fbb03b" stroke="#fbb03b" stroke-width="1"/><path d="M42,55.5H53.224v2.806H42Z" transform="translate(53.405 79.189)" fill="#fbb03b" stroke="#fbb03b" stroke-width="1"/><path d="M144.092,46.575A35.075,35.075,0,1,0,102,80.944v3.513H97.793v2.806h22.448a4.209,4.209,0,0,1,0,8.418,1.4,1.4,0,1,0,0,2.806,4.209,4.209,0,1,1,0,8.418,1.4,1.4,0,0,0,0,2.806,4.209,4.209,0,0,1,0,8.418,1.4,1.4,0,1,0,0,2.806,4.209,4.209,0,0,1,0,8.418H82.36V92.875h4.209a1.4,1.4,0,0,0,1.4-1.4V85.86a9.562,9.562,0,0,1,1.49-5.163L87.1,79.184a12.338,12.338,0,0,0-1.933,6.676v4.209H82.36v-1.4a4.214,4.214,0,0,0-4.209-4.209H8v2.806H78.151a1.405,1.405,0,0,1,1.4,1.4v44.9a1.405,1.405,0,0,1-1.4,1.4H8v2.806H78.151a4.214,4.214,0,0,0,4.209-4.209v-1.4h37.881a7.012,7.012,0,0,0,4.2-12.627,7.007,7.007,0,0,0,0-11.224,7.007,7.007,0,0,0,0-11.224,7.012,7.012,0,0,0-4.2-12.627h-4.209V80.944A35.13,35.13,0,0,0,144.092,46.575Zm-67.345,0a32.269,32.269,0,1,1,32.269,32.269A32.306,32.306,0,0,1,76.748,46.575Zm36.478,37.881h-8.418V81.373a32.026,32.026,0,0,0,8.418,0Z" transform="translate(-8 -0.276)" fill="#fbb03b" stroke="#fbb03b" stroke-width="1"/><path d="M92.427,42.963A29.463,29.463,0,1,0,62.963,72.427,29.5,29.5,0,0,0,92.427,42.963Zm-56.121,0A26.657,26.657,0,1,1,62.963,69.621,26.689,26.689,0,0,1,36.306,42.963Z" transform="translate(38.054 3.336)" fill="#fbb03b" stroke="#fbb03b" stroke-width="1"/><path d="M12.5,42.5h2.806V67.754H12.5Z" transform="translate(0.127 55.711)" fill="#fff" stroke="#fff" stroke-width="1"/><path d="M30.53,49.515A7.023,7.023,0,0,0,23.515,42.5H17.9a1.4,1.4,0,0,0-1.4,1.4V67.754h2.806V56.53h3.342l5.851,11.7L31.01,66.98l-5.4-10.8a7,7,0,0,0,4.922-6.662Zm-7.015,4.209H19.306V45.306h4.209a4.209,4.209,0,0,1,0,8.418Z" transform="translate(7.351 55.711)" fill="#fff" stroke="#fff" stroke-width="1"/><path d="M31.515,64.948H24.5v2.806h7.015a7.015,7.015,0,0,0,0-14.03,4.209,4.209,0,0,1,0-8.418H38.53V42.5H31.515a7.015,7.015,0,1,0,0,14.03,4.209,4.209,0,1,1,0,8.418Z" transform="translate(21.799 55.711)" fill="#fff" stroke="#fff" stroke-width="1"/><path d="M15.5,24.5H51.978v2.806H15.5Z" transform="translate(5.545 23.202)" fill="#fbb03b" stroke="#fbb03b" stroke-width="1"/><path d="M15.5,28.5H51.978v2.806H15.5Z" transform="translate(5.545 30.427)" fill="#fbb03b" stroke="#fbb03b" stroke-width="1"/><path d="M15.5,32.5H51.978v2.806H15.5Z" transform="translate(5.545 37.651)" fill="#fbb03b" stroke="#fbb03b" stroke-width="1"/></g></svg>