<svg xmlns="http://www.w3.org/2000/svg" width="140.108" height="140.11" viewBox="0 0 140.108 140.11"><g transform="translate(-2 -2)"><path d="M26.244,24.855a2.335,2.335,0,0,0,2.716.425,27.856,27.856,0,0,1,4.117-1.719,2.335,2.335,0,0,0,1.616-2.221V17.524a2.335,2.335,0,0,0-4.67,0v2.167c-.549.212-1.1.444-1.635.689l-4.841-4.838a2.335,2.335,0,0,0-3.3,0L7.021,28.752a2.335,2.335,0,0,0,0,3.3l4.841,4.838c-.248.549-.467,1.1-.689,1.649H4.335A2.335,2.335,0,0,0,2,40.876V59.557a2.335,2.335,0,0,0,2.335,2.335h6.837c.212.549.441,1.1.689,1.649L7.021,68.38a2.335,2.335,0,0,0,0,3.3l9.836,9.826a2.335,2.335,0,1,0,3.3-3.3l-8.173-8.173,4.362-4.357a2.335,2.335,0,0,0,.425-2.716,27.466,27.466,0,0,1-1.716-4.117,2.335,2.335,0,0,0-2.235-1.621H6.67V43.211h6.151a2.335,2.335,0,0,0,2.223-1.618,27.466,27.466,0,0,1,1.716-4.117,2.335,2.335,0,0,0-.425-2.716L11.973,30.4l9.91-9.908Z" transform="translate(0 17.168)" fill="#fbb03b"/><path d="M71.514,96.355l8.724-19.629h.817a16.113,16.113,0,0,1,10.1,3.552,2.335,2.335,0,1,0,2.9-3.657,20.722,20.722,0,0,0-13-4.565H71.714V70.206A25.687,25.687,0,0,0,83.39,48.7V43.3A20.888,20.888,0,0,0,90.4,27.687,25.717,25.717,0,0,0,64.709,2H50.7A25.638,25.638,0,0,0,33.651,8.51,2.335,2.335,0,0,0,36.757,12,20.977,20.977,0,0,1,50.7,6.67H64.709A21.04,21.04,0,0,1,85.725,27.687a16.187,16.187,0,0,1-2.335,8.362V30.022a2.335,2.335,0,0,0-2.335-2.335H71.32A21.827,21.827,0,0,1,52.7,17.144a2.335,2.335,0,0,0-2.335-1.109l-2.475.355a18.579,18.579,0,0,0-15.872,18.3v1.35a16.162,16.162,0,0,1-2.335-8.355,20.811,20.811,0,0,1,1.992-8.874,2.336,2.336,0,1,0-4.234-1.978,25.481,25.481,0,0,0-2.429,10.852A20.889,20.889,0,0,0,32.017,43.3V48.7a25.687,25.687,0,0,0,11.676,21.5v1.849H34.352a20.9,20.9,0,0,0-14.2,5.566,13.981,13.981,0,0,1,5.522-23.659,2.335,2.335,0,1,0-1.331-4.477,18.656,18.656,0,0,0-7.274,31.656,20.867,20.867,0,0,0-3.736,11.93v46.7a2.335,2.335,0,1,0,4.67,0v-46.7A16.365,16.365,0,0,1,34.352,76.725h.817l8.724,19.629a2.335,2.335,0,0,0,3.594.876l7.881-6.3V137.44a2.335,2.335,0,0,0,4.67,0V90.925l7.881,6.3a2.335,2.335,0,0,0,3.594-.876ZM36.687,48.7V34.692A13.89,13.89,0,0,1,48.552,21.011l.992-.14A26.532,26.532,0,0,0,71.32,32.357h7.4V48.7a21.016,21.016,0,1,1-42.033,0ZM57.7,74.39a25.516,25.516,0,0,0,9.341-1.784v3L57.7,83.077,48.363,75.6v-3A25.516,25.516,0,0,0,57.7,74.39Zm-10.77,17.3L40.281,76.725h3.412a2.335,2.335,0,0,0,.876,1.824l9.4,7.517Zm21.54,0L61.44,86.066l9.4-7.517a2.335,2.335,0,0,0,.878-1.824h3.412Z" transform="translate(12.016)" fill="#fbb03b"/><path d="M21.335,45A2.335,2.335,0,0,0,19,47.335V82.363a2.335,2.335,0,1,0,4.67,0V47.335A2.335,2.335,0,0,0,21.335,45Z" transform="translate(22.698 57.412)" fill="#fbb03b"/><path d="M24.684,19.788a2.335,2.335,0,1,0,3.3,3.3,4.276,4.276,0,0,1,6.038,0,2.335,2.335,0,1,0,3.3-3.3A8.948,8.948,0,0,0,24.684,19.788Z" transform="translate(29.374 20.259)" fill="#fbb03b"/><path d="M35.986,23.09a4.276,4.276,0,0,1,6.039,0,2.335,2.335,0,1,0,3.3-3.3,8.948,8.948,0,0,0-12.643,0,2.335,2.335,0,1,0,3.3,3.3Z" transform="translate(40.055 20.259)" fill="#fbb03b"/><path d="M49.681,17.676a2.335,2.335,0,0,0,0-4.67,20.082,20.082,0,0,1-14.3-5.924l-.4-.4a2.335,2.335,0,1,0-3.3,3.307l.4.4a24.708,24.708,0,0,0,17.6,7.29Z" transform="translate(38.72 5.341)" fill="#fbb03b"/><path d="M53.005,53.7H76.357a2.335,2.335,0,0,0,2.335-2.335V39.687a2.335,2.335,0,0,0-4.67,0v9.341H53.005a2.335,2.335,0,0,1-2.335-2.335V23.341a2.335,2.335,0,0,1,2.335-2.335h2.335v7.005A2.335,2.335,0,0,0,58.72,30.1l3.627-1.814L65.973,30.1a2.335,2.335,0,0,0,3.379-2.09V21.006h4.67v9.3a2.335,2.335,0,1,0,4.67,0V18.67a2.335,2.335,0,0,0-2.335-2.335H68.7A4.654,4.654,0,0,0,64.681,14h-4.67a4.654,4.654,0,0,0-4.021,2.335H53.005A7.005,7.005,0,0,0,46,23.341V46.692A7.005,7.005,0,0,0,53.005,53.7ZM64.681,18.67v5.562l-1.291-.647a2.335,2.335,0,0,0-2.088,0l-1.291.647V18.67Z" transform="translate(58.747 16.022)" fill="#fbb03b"/><path d="M52.335,24a2.335,2.335,0,0,0,0,4.67h7.006a2.335,2.335,0,1,0,0-4.67Z" transform="translate(64.088 29.374)" fill="#fbb03b"/><path d="M96.382,58.039A2.335,2.335,0,0,0,93.688,57l-25,7.685V48.869l4.231,8.57A2.335,2.335,0,1,0,77.1,55.375L68.454,37.829a2.429,2.429,0,0,0-4.185,0L56.152,54.273,38,56.909a2.335,2.335,0,0,0-1.294,3.984L49.833,73.685l-3.1,18.084a2.335,2.335,0,0,0,3.386,2.466L66.352,85.7l16.229,8.537a2.335,2.335,0,0,0,3.386-2.466l-3.1-18.084L96.009,60.893a2.335,2.335,0,0,0,.374-2.854Zm-38.353.7a2.335,2.335,0,0,0,1.756-1.28l4.231-8.591V64.685L48.93,60.041ZM46.884,64.316l15.69,4.831L53.063,82.5l1.579-9.208a2.335,2.335,0,0,0-.67-2.067Zm18.38,16.694-8.64,4.547,9.728-13.684,9.731,13.663-8.64-4.547a2.335,2.335,0,0,0-2.179,0Zm13.469-9.784a2.335,2.335,0,0,0-.67,2.067L79.642,82.5,70.131,69.148l15.69-4.831Z" transform="translate(45.401 46.241)" fill="#fff"/></g></svg>