<svg xmlns="http://www.w3.org/2000/svg" width="118.208" height="122.281" viewBox="0 0 118.208 122.281"><g transform="translate(-2.986 -2.012)"><path d="M19.226,18.113a6.113,6.113,0,1,0-6.113,6.113A6.113,6.113,0,0,0,19.226,18.113Zm-8.15,0a2.038,2.038,0,1,1,2.038,2.038A2.038,2.038,0,0,1,11.075,18.113Z" transform="translate(4.165 10.363)" fill="#fff"/><path d="M59.226,12.113a6.113,6.113,0,1,0-6.113,6.113,6.113,6.113,0,0,0,6.113-6.113Zm-8.15,0a2.038,2.038,0,1,1,2.038,2.038A2.038,2.038,0,0,1,51.075,12.113Z" transform="translate(45.669 4.138)" fill="#fff"/><path d="M38.226,38.113a6.113,6.113,0,1,0-6.113,6.113A6.113,6.113,0,0,0,38.226,38.113Zm-8.15,0a2.038,2.038,0,1,1,2.038,2.038A2.038,2.038,0,0,1,30.075,38.113Z" transform="translate(23.879 31.115)" fill="#fff"/><path d="M108.276,28.313c2.567-3.851,4.768-8.252,4.768-12.063a14.263,14.263,0,0,0-27.487-5.318A58.844,58.844,0,0,0,26.773,17.86,14.241,14.241,0,0,0,3.014,28.476c0,3.994,2.4,8.619,5.135,12.572A59.1,59.1,0,1,0,108.277,28.313Zm-9.5-22.251A10.188,10.188,0,0,1,108.969,16.25c0,5.237-6.418,13.305-10.188,17.421-3.77-4.116-10.188-12.185-10.188-17.421A10.188,10.188,0,0,1,98.781,6.062ZM7.09,28.476a10.188,10.188,0,0,1,20.376,0c0,5.237-6.418,13.305-10.188,17.421C13.508,41.782,7.09,33.713,7.09,28.476Zm0,36.677a54.182,54.182,0,0,1,3.892-20.315c2.3,2.853,4.34,4.951,4.849,5.461a2.066,2.066,0,0,0,2.893,0c1.3-1.324,12.816-13.081,12.816-21.823a14.249,14.249,0,0,0-2.139-7.5c.285-.224.591-.428.9-.652h6.52l4.911,4.911v6.48l-7.559,7.539a2.1,2.1,0,0,0-.591,1.447v7.315L26.63,54.965H21.353A2.038,2.038,0,0,0,19.315,57v6.113a2.1,2.1,0,0,0,.591,1.447l9.6,9.577v4.442l-5.522,5.5a2.1,2.1,0,0,0-.591,1.447v5.277l-6.154,6.133A54.738,54.738,0,0,1,7.09,65.153ZM62.1,112.017v8.15c-1.365,0-2.73-.061-4.075-.163V105.9a2.1,2.1,0,0,0-.591-1.447l-3.484-3.464V93.679a2.038,2.038,0,0,0-2.038-2.038H44.6l-2.873-2.873V84.327l4.1-4.1a69.52,69.52,0,0,0,8.721,10.82,2.066,2.066,0,0,0,2.893,0,69.521,69.521,0,0,0,8.721-10.82l6.133,6.133v6.48l-3.484,3.464a2.1,2.1,0,0,0-.591,1.447v7.315l-5.522,5.5a2.1,2.1,0,0,0-.591,1.447ZM67.626,51.48l-3.484-3.464v-1.2h8.15v9.353L69.42,59.04h-1.2V52.927A2.1,2.1,0,0,0,67.626,51.48ZM66.18,69.228c0,5.237-6.418,13.306-10.188,17.421C52.222,82.533,45.8,74.465,45.8,69.228a10.188,10.188,0,0,1,20.376,0Zm30.564,38.633A54.8,54.8,0,0,1,66.18,120v-7.152l5.522-5.5a2.1,2.1,0,0,0,.591-1.447V98.59l3.484-3.464a2.1,2.1,0,0,0,.591-1.447v-8.15a2.1,2.1,0,0,0-.591-1.447l-7.539-7.539a17.456,17.456,0,0,0,2.017-7.315,14.027,14.027,0,0,0-1.406-6.113h1.406a2.1,2.1,0,0,0,1.447-.591l4.075-4.075A2.1,2.1,0,0,0,76.368,57V44.777a2.038,2.038,0,0,0-2.038-2.038H62.1a2.038,2.038,0,0,0-2.038,2.038v4.075a2.1,2.1,0,0,0,.591,1.447l3.484,3.464v3.77a14.263,14.263,0,0,0-22.414,11.7,17.456,17.456,0,0,0,2.017,7.315l-5.5,5.5a2.1,2.1,0,0,0-.591,1.447V89.6a2.1,2.1,0,0,0,.591,1.447l4.075,4.075a2.1,2.1,0,0,0,1.447.591h6.113v6.113a2.1,2.1,0,0,0,.591,1.447l3.484,3.464v12.816A55.029,55.029,0,0,1,19.743,100.22l7.132-7.132a2.1,2.1,0,0,0,.591-1.447V86.364l5.522-5.5a2.1,2.1,0,0,0,.591-1.447V73.3a2.1,2.1,0,0,0-.591-1.447l-9.6-9.577V59.04h4.075a2.1,2.1,0,0,0,1.447-.591l8.15-8.15a2.1,2.1,0,0,0,.591-1.447V41.537L45.213,34a2.1,2.1,0,0,0,.591-1.447V24.4a2.1,2.1,0,0,0-.591-1.447L39.1,16.841a2.1,2.1,0,0,0-1.447-.591h-.693a53.931,53.931,0,0,1,16.994-5.481V24.4a2.1,2.1,0,0,0,.591,1.447L62.7,34a2.1,2.1,0,0,0,1.447.591h9.353l8.986,8.986V54.129L79,57.593a2.1,2.1,0,0,0-.591,1.447v8.15A2.1,2.1,0,0,0,79,68.637l7.559,7.539v9.353a2.1,2.1,0,0,0,.591,1.447l9.6,9.577Zm4.075-3.668V95.717a2.1,2.1,0,0,0-.591-1.447l-9.6-9.577V75.341a2.1,2.1,0,0,0-.591-1.447l-7.559-7.539v-6.48l3.484-3.464a2.1,2.1,0,0,0,.591-1.447V42.739a2.1,2.1,0,0,0-.591-1.447L75.777,31.1a2.1,2.1,0,0,0-1.447-.591H64.978l-6.948-6.948V10.3c1.345-.1,2.71-.163,4.075-.163a54.455,54.455,0,0,1,22.475,4.809c-.041.428-.061.856-.061,1.3,0,8.741,11.512,20.5,12.816,21.823a2.066,2.066,0,0,0,2.893,0,76.658,76.658,0,0,0,5.522-6.317,54.826,54.826,0,0,1-4.931,72.437Z" transform="translate(0)" fill="#fbb03b"/></g></svg>