<svg xmlns="http://www.w3.org/2000/svg" width="121" height="121" viewBox="0 0 121 121"><g transform="translate(0)"><path d="M277.063,184.545A3.545,3.545,0,1,1,273.518,181,3.545,3.545,0,0,1,277.063,184.545Zm0,0" transform="translate(-206.171 -138.225)" fill="#fff"/><path d="M277.063,244.545A3.545,3.545,0,1,1,273.518,241,3.545,3.545,0,0,1,277.063,244.545Zm0,0" transform="translate(-206.171 -184.045)" fill="#fff"/><path d="M277.063,304.545A3.545,3.545,0,1,1,273.518,301,3.545,3.545,0,0,1,277.063,304.545Zm0,0" transform="translate(-206.171 -229.866)" fill="#fff"/><path d="M119.96,22.307,98.692,1.039A3.574,3.574,0,0,0,96.185,0H38.993a3.545,3.545,0,0,0-3.545,3.545v32.14a14.2,14.2,0,0,0-14.18,14.18c0,2.041-.11.453,6.373,35.685H22.834a10.621,10.621,0,0,0-9.953,6.888L8.474,99.951A10.653,10.653,0,0,0,0,110.365v7.09A3.545,3.545,0,0,0,3.544,121h113.91A3.545,3.545,0,0,0,121,117.455V24.814a3.564,3.564,0,0,0-1.039-2.507ZM99.73,12.1l9.166,9.166H99.73ZM28.359,49.865a7.09,7.09,0,1,1,14.18,0c0,.99.482-2.064-6.493,35.685H34.853c-7.022-37.926-6.494-34.791-6.494-35.685Zm-8.887,45.2a3.539,3.539,0,0,1,3.362-2.424h25.23a3.541,3.541,0,0,1,3.363,2.424c.2.612.3.616,2.648,4.666H16.823c2.368-4.083,2.444-4.055,2.649-4.666Zm-12.382,15.3a3.549,3.549,0,0,1,3.545-3.545H60.271a3.548,3.548,0,0,1,3.537,3.544v3.545H7.089ZM70.9,113.91v-3.545a10.653,10.653,0,0,0-8.475-10.414l-4.407-7.513a10.621,10.621,0,0,0-9.953-6.888H43.255c6.609-35.913,6.373-33.667,6.373-35.685a14.187,14.187,0,0,0-7.09-12.272V7.09h50.1V24.814a3.545,3.545,0,0,0,3.545,3.545h17.725v85.55Zm0,0" fill="#fbb03b"/><path d="M267.834,61.08A3.543,3.543,0,0,0,262.822,61L250.675,72.752l-4.624-4.624a3.545,3.545,0,0,0-5.013,5.013l7.09,7.09a3.543,3.543,0,0,0,4.971.041l14.652-14.18a3.544,3.544,0,0,0,.082-5.012Zm0,0" transform="translate(-183.282 -45.82)" fill="#fbb03b"/><path d="M356.814,181H335.545a3.545,3.545,0,0,0,0,7.09h21.269a3.545,3.545,0,1,0,0-7.09Zm0,0" transform="translate(-253.54 -138.225)" fill="#fff"/><path d="M356.814,241H335.545a3.545,3.545,0,0,0,0,7.09h21.269a3.545,3.545,0,1,0,0-7.09Zm0,0" transform="translate(-253.54 -184.045)" fill="#fff"/><path d="M356.814,301H335.545a3.545,3.545,0,0,0,0,7.09h21.269a3.545,3.545,0,1,0,0-7.09Zm0,0" transform="translate(-253.54 -229.866)" fill="#fff"/><path d="M372.635,362a10.635,10.635,0,1,0,10.635,10.635A10.647,10.647,0,0,0,372.635,362Zm0,14.18a3.545,3.545,0,1,1,3.545-3.545A3.549,3.549,0,0,1,372.635,376.18Zm0,0" transform="translate(-276.45 -276.45)" fill="#fbb03b"/></g></svg>