<svg xmlns="http://www.w3.org/2000/svg" width="84.928" height="136.586" viewBox="0 0 84.928 136.586"><g transform="translate(-1104.536 -2340.426)"><g transform="translate(1104.535 2340.426)"><path d="M79.62,31.848H60.157V17.693H72.543a1.769,1.769,0,0,0,1.769-1.769V8.847A8.847,8.847,0,0,0,65.465,0H8.847A8.847,8.847,0,0,0,0,8.847V76.081a1.769,1.769,0,0,0,1.769,1.769H42.464V79.62a5.308,5.308,0,0,0,5.308,5.308H79.62a5.308,5.308,0,0,0,5.308-5.308V37.156A5.308,5.308,0,0,0,79.62,31.848Zm-8.847-23v5.308H60.157V8.847a5.308,5.308,0,1,1,10.616,0ZM3.539,74.312V8.847A5.308,5.308,0,0,1,8.847,3.539H58.388c-2.353,3.114-1.769,3.1-1.769,28.309H47.772a5.308,5.308,0,0,0-5.308,5.308V74.312ZM81.389,79.62a1.769,1.769,0,0,1-1.769,1.769H47.772A1.769,1.769,0,0,1,46,79.62V37.156a1.769,1.769,0,0,1,1.769-1.769H79.62a1.769,1.769,0,0,1,1.769,1.769Z" transform="translate(0.001 0)" fill="#fbb03b"/><path d="M54.54,22H29.769A1.769,1.769,0,0,0,28,23.769V37.924a1.769,1.769,0,0,0,1.769,1.769H54.54a1.769,1.769,0,0,0,1.769-1.769V23.769A1.769,1.769,0,0,0,54.54,22ZM52.771,36.155H31.539V25.539H52.771Z" transform="translate(21.542 16.925)" fill="#fbb03b"/><path d="M39.308,34H35.769a1.769,1.769,0,0,0,0,3.539h3.539a1.769,1.769,0,1,0,0-3.539Z" transform="translate(26.158 26.157)" fill="#fbb03b"/><path d="M33.308,34H29.769a1.769,1.769,0,0,0,0,3.539h3.539a1.769,1.769,0,0,0,0-3.539Z" transform="translate(21.542 26.157)" fill="#fbb03b"/><path d="M45.308,34H41.769a1.769,1.769,0,1,0,0,3.539h3.539a1.769,1.769,0,0,0,0-3.539Z" transform="translate(30.774 26.157)" fill="#fbb03b"/><path d="M39.308,38H35.769a1.769,1.769,0,0,0,0,3.539h3.539a1.769,1.769,0,0,0,0-3.539Z" transform="translate(26.158 29.235)" fill="#fbb03b"/><path d="M33.308,38H29.769a1.769,1.769,0,0,0,0,3.539h3.539a1.769,1.769,0,0,0,0-3.539Z" transform="translate(21.542 29.235)" fill="#fbb03b"/><path d="M45.308,38H41.769a1.769,1.769,0,1,0,0,3.539h3.539a1.769,1.769,0,0,0,0-3.539Z" transform="translate(30.774 29.235)" fill="#fbb03b"/><path d="M39.308,42H35.769a1.769,1.769,0,0,0,0,3.539h3.539a1.769,1.769,0,1,0,0-3.539Z" transform="translate(26.158 32.312)" fill="#fbb03b"/><path d="M33.308,42H29.769a1.769,1.769,0,0,0,0,3.539h3.539a1.769,1.769,0,1,0,0-3.539Z" transform="translate(21.542 32.312)" fill="#fbb03b"/><path d="M45.308,42H41.769a1.769,1.769,0,1,0,0,3.539h3.539a1.769,1.769,0,0,0,0-3.539Z" transform="translate(30.774 32.312)" fill="#fbb03b"/><path d="M32.54,19H7.769a1.769,1.769,0,0,0,0,3.539H32.54a1.769,1.769,0,0,0,0-3.539Z" transform="translate(4.617 14.617)" fill="#fbb03b"/><path d="M32.54,29H7.769a1.769,1.769,0,0,0,0,3.539H32.54a1.769,1.769,0,0,0,0-3.539Z" transform="translate(4.617 22.311)" fill="#fbb03b"/><path d="M7.769,12.539H43.156a1.769,1.769,0,1,0,0-3.539H7.769a1.769,1.769,0,0,0,0,3.539Z" transform="translate(4.617 6.924)" fill="#fbb03b"/><path d="M7.769,17.539H43.156a1.769,1.769,0,1,0,0-3.539H7.769a1.769,1.769,0,0,0,0,3.539Z" transform="translate(4.617 10.771)" fill="#fbb03b"/><path d="M32.54,24H7.769a1.769,1.769,0,0,0,0,3.539H32.54a1.769,1.769,0,0,0,0-3.539Z" transform="translate(4.617 18.464)" fill="#fbb03b"/><path d="M32.54,34H7.769a1.769,1.769,0,0,0,0,3.539H32.54a1.769,1.769,0,0,0,0-3.539Z" transform="translate(4.617 26.157)" fill="#fbb03b"/></g><g transform="translate(1107.168 2425.354)"><path d="M78.11,92.221H48.5A3.735,3.735,0,0,0,45.088,90H34.578a3.739,3.739,0,0,0-3.415,2.221H23.957a1.556,1.556,0,0,0,0,3.112h6.886v7.295H3.112V95.333H9.984a1.556,1.556,0,0,0,0-3.112H1.556A1.556,1.556,0,0,0,0,93.777v10.406a1.556,1.556,0,0,0,1.556,1.556h23.09L5.5,133.277a1.556,1.556,0,0,0,.391,2.166l8.556,5.937a1.556,1.556,0,0,0,2.165-.39l22.956-33.025h.683L49,120.24a1.555,1.555,0,0,0,2.169.365l8.486-6.039a1.556,1.556,0,0,0,.365-2.17l-4.742-6.656H78.11a1.556,1.556,0,0,0,1.556-1.556V93.777A1.556,1.556,0,0,0,78.11,92.221ZM33.955,93.729a.628.628,0,0,1,.623-.617h10.51a.626.626,0,0,1,.618.617v10.5a.628.628,0,0,1-.618.621H34.578a.63.63,0,0,1-.623-.621ZM14.949,137.937l-6-4.163L28.436,105.74h2.726a3.739,3.739,0,0,0,3.416,2.226h1.2Zm35.682-20.769-6.555-9.2h1.012a3.736,3.736,0,0,0,3.73-3.733v-2.2l7.763,10.9Zm25.923-14.54H53.06l-4.242-5.954v-1.34H76.554Z" transform="translate(0.001 -90)" fill="#fff"/><path d="M100.626,107.389h.009a1.56,1.56,0,1,0-.009,0Z" transform="translate(-83.654 -102.056)" fill="#fff"/></g></g></svg>