<svg xmlns="http://www.w3.org/2000/svg" xmlns:xlink="http://www.w3.org/1999/xlink" width="108.79" height="125.458" viewBox="0 0 108.79 125.458"><defs><clipPath id="a"><rect width="108.79" height="125.458" transform="translate(0 0)" fill="none"/></clipPath></defs><g clip-path="url(#a)"><path d="M49.81,85.506a13.856,13.856,0,1,0,0,19.6,13.864,13.864,0,0,0,0-19.6M47.97,102.5a.529.529,0,0,1-.58.19,10.437,10.437,0,1,1,0-14.76,10.578,10.578,0,0,1,3.36,7.66,9.979,9.979,0,0,1-2.78,6.91" fill="#fbb03b"/><path d="M49.81,85.506a13.856,13.856,0,1,0,0,19.6,13.864,13.864,0,0,0,0-19.6M47.97,102.5a.529.529,0,0,1-.58.19,10.437,10.437,0,1,1,0-14.76,10.578,10.578,0,0,1,3.36,7.66,9.979,9.979,0,0,1-2.78,6.91" fill="#fbb03b"/><path d="M49.81,85.506a13.856,13.856,0,1,0,0,19.6,13.864,13.864,0,0,0,0-19.6M47.97,102.5a.529.529,0,0,1-.58.19,10.437,10.437,0,1,1,0-14.76,10.578,10.578,0,0,1,3.36,7.66,9.979,9.979,0,0,1-2.78,6.91" fill="#fbb03b"/><path d="M49.81,85.506a13.856,13.856,0,1,0,0,19.6,13.864,13.864,0,0,0,0-19.6M47.97,102.5a.529.529,0,0,1-.58.19,10.437,10.437,0,1,1,0-14.76,10.578,10.578,0,0,1,3.36,7.66,9.979,9.979,0,0,1-2.78,6.91" fill="#fbb03b"/><path d="M49.81,85.506a13.856,13.856,0,1,0,0,19.6,13.864,13.864,0,0,0,0-19.6M47.97,102.5a.529.529,0,0,1-.58.19,10.437,10.437,0,1,1,0-14.76,10.578,10.578,0,0,1,3.36,7.66,9.979,9.979,0,0,1-2.78,6.91m1.84-16.99a13.856,13.856,0,1,0,0,19.6,13.864,13.864,0,0,0,0-19.6M47.97,102.5a.529.529,0,0,1-.58.19,10.437,10.437,0,1,1,0-14.76,10.578,10.578,0,0,1,3.36,7.66,9.979,9.979,0,0,1-2.78,6.91m1.84-16.99a13.856,13.856,0,1,0,0,19.6,13.864,13.864,0,0,0,0-19.6M47.97,102.5a.529.529,0,0,1-.58.19,10.437,10.437,0,1,1,0-14.76,10.578,10.578,0,0,1,3.36,7.66,9.979,9.979,0,0,1-2.78,6.91m1.84-16.99a13.856,13.856,0,1,0,0,19.6,13.864,13.864,0,0,0,0-19.6M47.97,102.5a.529.529,0,0,1-.58.19,10.437,10.437,0,1,1,0-14.76,10.578,10.578,0,0,1,3.36,7.66,9.979,9.979,0,0,1-2.78,6.91m1.84-16.99a13.856,13.856,0,1,0,0,19.6,13.864,13.864,0,0,0,0-19.6M47.97,102.5a.529.529,0,0,1-.58.19,10.437,10.437,0,1,1,0-14.76,10.578,10.578,0,0,1,3.36,7.66,9.979,9.979,0,0,1-2.78,6.91m1.84-16.99a13.856,13.856,0,1,0,0,19.6,13.864,13.864,0,0,0,0-19.6M47.97,102.5a.529.529,0,0,1-.58.19,10.437,10.437,0,1,1,0-14.76,10.578,10.578,0,0,1,3.36,7.66,9.979,9.979,0,0,1-2.78,6.91m51.92-64.79q.33-1.23.6-2.46c2.58-11.77.47-21.78-5.96-28.2C89.06,1.566,81.08-.794,71.44.236c-8.34.89-17.27,4.23-25.97,9.7v-2.1a1.724,1.724,0,0,0-1.71-1.72H1.71A1.711,1.711,0,0,0,0,7.836v42.03a1.711,1.711,0,0,0,1.71,1.72H9.89a50.562,50.562,0,0,0,8.4,45.73,21.769,21.769,0,0,0,6.29,13.42l14.22,14.22a1.708,1.708,0,0,0,2.42,0l8.74-8.74a50.548,50.548,0,0,0,49.93-78.51m3.66,15.67c-7.16.43-9.17,1.7-10.09,2.81-1.53,1.84-1.83,4.2-2.11,6.49-.47,3.7-.8,6.38-5.66,7-.35.05-.69.1-1.02.16l-1.94-1.95a79.468,79.468,0,0,0,15.83-25.92,46.962,46.962,0,0,1,4.99,11.41M71.81,3.646c8.56-.91,15.58,1.1,20.3,5.81,5.57,5.57,7.35,14.47,5.03,25.04-2.37,10.83-8.78,22.29-18.04,32.28a1.706,1.706,0,0,0,.05,2.38l5.25,5.25-24.71,2.96,2.95-24.7,5.49,5.48a1.72,1.72,0,0,0,2.43,0l.04-.04c7.18-7.72,12.16-16.64,14.02-25.12,1.94-8.8.35-16.32-4.49-21.15-3.99-4-9.77-5.79-16.72-5.18a35.472,35.472,0,0,0-7,1.34,52.268,52.268,0,0,1,15.4-4.35m-26.34,13.1c12.81-8.01,25.69-9.04,32.24-2.49a14.528,14.528,0,0,1,3.82,7.23,50.745,50.745,0,0,0-36.06-4.05Zm0,4.25a47.227,47.227,0,0,1,28.16.82c-1.86,6.37-3.05,7.14-3.09,7.17a6.914,6.914,0,0,1-3.47.02c-2.84-.39-7.12-.98-9.4,4.59-1.99,4.85-6.49,7.48-12.2,7.22ZM18.21,9.546h9.06v12.82l-3.5-2.66a1.71,1.71,0,0,0-2.08,0l-3.48,2.66ZM3.43,48.146V9.546H14.77v16.28a1.72,1.72,0,0,0,2.76,1.37l5.2-3.97,5.21,3.97a1.709,1.709,0,0,0,2.4-.33,1.666,1.666,0,0,0,.35-1.03V9.546H42.04v38.6Zm10.06,3.44H43.75a1.72,1.72,0,0,0,1.72-1.72v-5.62c.24.01.48.02.72.02,6.74,0,12.23-3.44,14.65-9.37,1.22-2.97,2.73-2.9,5.76-2.49a9.453,9.453,0,0,0,5.37-.31c1.28-.58,2.84-2.15,4.87-9.04a46.847,46.847,0,0,1,5.15,2.6,28.084,28.084,0,0,1-.72,6.59c-1.63,7.42-5.86,15.24-11.98,22.2l-6.72-6.71a1.72,1.72,0,0,0-2.43.01,1.656,1.656,0,0,0-.48,1l-.58,4.81c-7.24-2.15-12.56,2.04-17.7,6.1-4.2,3.31-8.54,6.74-14.03,6.74-4.71,0-10.03-.05-16.23-.15a47.116,47.116,0,0,1,2.37-14.66m5.02,40.1a46.372,46.372,0,0,1-7.27-22.01c6.14.1,11.43.15,16.11.15,6.68,0,11.72-3.98,16.16-7.48,5-3.94,9.32-7.35,15.16-5.32l-1.28,10.7a68.349,68.349,0,0,1-8,7.87A21.8,21.8,0,0,0,20.33,85.9a21.328,21.328,0,0,0-1.82,5.79m21.5,29.63-13-13a18.364,18.364,0,1,1,26,0Zm18.23-7.85a48.289,48.289,0,0,1-5.24-.29l2.44-2.44a21.818,21.818,0,0,0-2.92-33.3c1.07-.92,2.57-2.28,4.16-3.88l-.66,5.57a1.71,1.71,0,0,0,1.5,1.9,1.408,1.408,0,0,0,.41,0l13.39-1.6a26.924,26.924,0,0,0-3.03,14.68,30.5,30.5,0,0,0,6.03,16.54,46.9,46.9,0,0,1-16.08,2.82m19.39-4.17v-.01c-7.18-8.7-8.06-22.42-1.88-30.39l12.56-1.5a1.72,1.72,0,0,0,1.5-1.91,1.784,1.784,0,0,0-.49-1.01l-1.68-1.67c6.06-1.43,6.66-6.17,7.11-9.7.23-1.88.45-3.65,1.34-4.72.12-.14,1.27-1.27,8.29-1.61A47.18,47.18,0,0,1,77.63,109.3M49.81,85.506a13.856,13.856,0,1,0,0,19.6,13.864,13.864,0,0,0,0-19.6M47.97,102.5a.529.529,0,0,1-.58.19,10.437,10.437,0,1,1,0-14.76,10.578,10.578,0,0,1,3.36,7.66,9.979,9.979,0,0,1-2.78,6.91m1.84-16.99a13.856,13.856,0,1,0,0,19.6,13.864,13.864,0,0,0,0-19.6M47.97,102.5a.529.529,0,0,1-.58.19,10.437,10.437,0,1,1,0-14.76,10.578,10.578,0,0,1,3.36,7.66,9.979,9.979,0,0,1-2.78,6.91m1.84-16.99a13.856,13.856,0,1,0,0,19.6,13.864,13.864,0,0,0,0-19.6M47.97,102.5a.529.529,0,0,1-.58.19,10.437,10.437,0,1,1,0-14.76,10.578,10.578,0,0,1,3.36,7.66,9.979,9.979,0,0,1-2.78,6.91m1.84-16.99a13.856,13.856,0,1,0,0,19.6,13.864,13.864,0,0,0,0-19.6M47.97,102.5a.529.529,0,0,1-.58.19,10.437,10.437,0,1,1,0-14.76,10.578,10.578,0,0,1,3.36,7.66,9.979,9.979,0,0,1-2.78,6.91m1.84-16.99a13.856,13.856,0,1,0,0,19.6,13.864,13.864,0,0,0,0-19.6M47.97,102.5a.529.529,0,0,1-.58.19,10.437,10.437,0,1,1,0-14.76,10.578,10.578,0,0,1,3.36,7.66,9.979,9.979,0,0,1-2.78,6.91m1.84-16.99a13.856,13.856,0,1,0,0,19.6,13.864,13.864,0,0,0,0-19.6M47.97,102.5a.529.529,0,0,1-.58.19,10.437,10.437,0,1,1,0-14.76,10.578,10.578,0,0,1,3.36,7.66,9.979,9.979,0,0,1-2.78,6.91m1.84-16.99a13.856,13.856,0,1,0,0,19.6,13.864,13.864,0,0,0,0-19.6M47.97,102.5a.529.529,0,0,1-.58.19,10.437,10.437,0,1,1,0-14.76,10.578,10.578,0,0,1,3.36,7.66,9.979,9.979,0,0,1-2.78,6.91" fill="#fbb03b"/><path d="M49.81,85.506a13.856,13.856,0,1,0,0,19.6,13.864,13.864,0,0,0,0-19.6M47.97,102.5a.529.529,0,0,1-.58.19,10.437,10.437,0,1,1,0-14.76,10.578,10.578,0,0,1,3.36,7.66,9.979,9.979,0,0,1-2.78,6.91" fill="#fbb03b"/><path d="M49.81,85.506a13.856,13.856,0,1,0,0,19.6,13.864,13.864,0,0,0,0-19.6M47.97,102.5a.529.529,0,0,1-.58.19,10.437,10.437,0,1,1,0-14.76,10.578,10.578,0,0,1,3.36,7.66,9.979,9.979,0,0,1-2.78,6.91" fill="#fbb03b"/><path d="M49.81,85.506a13.856,13.856,0,1,0,0,19.6,13.864,13.864,0,0,0,0-19.6M47.97,102.5a.529.529,0,0,1-.58.19,10.437,10.437,0,1,1,0-14.76,10.578,10.578,0,0,1,3.36,7.66,9.979,9.979,0,0,1-2.78,6.91" fill="#fbb03b"/><path d="M49.81,85.506a13.856,13.856,0,1,0,0,19.6,13.864,13.864,0,0,0,0-19.6M47.97,102.5a.529.529,0,0,1-.58.19,10.437,10.437,0,1,1,0-14.76,10.578,10.578,0,0,1,3.36,7.66,9.979,9.979,0,0,1-2.78,6.91" fill="#fbb03b"/><path d="M49.81,85.506a13.856,13.856,0,1,0,0,19.6,13.864,13.864,0,0,0,0-19.6M47.97,102.5a.529.529,0,0,1-.58.19,10.437,10.437,0,1,1,0-14.76,10.578,10.578,0,0,1,3.36,7.66,9.979,9.979,0,0,1-2.78,6.91" fill="#fbb03b"/><path d="M49.81,85.506a13.856,13.856,0,1,0,0,19.6,13.864,13.864,0,0,0,0-19.6M47.97,102.5a.529.529,0,0,1-.58.19,10.437,10.437,0,1,1,0-14.76,10.578,10.578,0,0,1,3.36,7.66,9.979,9.979,0,0,1-2.78,6.91" fill="#fff"/></g></svg>