<svg xmlns="http://www.w3.org/2000/svg" xmlns:xlink="http://www.w3.org/1999/xlink" width="115.864" height="138.13" viewBox="0 0 115.864 138.13"><defs><clipPath id="a"><rect width="115.864" height="138.13" fill="none"/></clipPath></defs><g clip-path="url(#a)"><path d="M28.152,73.42a1.975,1.975,0,0,0-2.71.58l-.31.48a1.96,1.96,0,1,0,3.29,2.13l.31-.48a1.957,1.957,0,0,0-.58-2.71m0,0a1.975,1.975,0,0,0-2.71.58l-.31.48a1.96,1.96,0,1,0,3.29,2.13l.31-.48a1.957,1.957,0,0,0-.58-2.71m0,0a1.975,1.975,0,0,0-2.71.58l-.31.48a1.96,1.96,0,1,0,3.29,2.13l.31-.48a1.957,1.957,0,0,0-.58-2.71m0,0a1.975,1.975,0,0,0-2.71.58l-.31.48a1.96,1.96,0,1,0,3.29,2.13l.31-.48a1.957,1.957,0,0,0-.58-2.71m0,0a1.975,1.975,0,0,0-2.71.58l-.31.48a1.96,1.96,0,1,0,3.29,2.13l.31-.48a1.957,1.957,0,0,0-.58-2.71m62.08,1.06-.31-.48c-.03-.04-.06-.09-.09-.13a1.959,1.959,0,1,0-3.2,2.26l.31.48a1.96,1.96,0,0,0,3.29-2.13m0,0-.31-.48c-.03-.04-.06-.09-.09-.13a1.959,1.959,0,1,0-3.2,2.26l.31.48a1.96,1.96,0,0,0,3.29-2.13m-62.08-1.06a1.975,1.975,0,0,0-2.71.58l-.31.48a1.96,1.96,0,1,0,3.29,2.13l.31-.48a1.957,1.957,0,0,0-.58-2.71m0,0a1.975,1.975,0,0,0-2.71.58l-.31.48a1.96,1.96,0,1,0,3.29,2.13l.31-.48a1.957,1.957,0,0,0-.58-2.71m62.08,1.06-.31-.48c-.03-.04-.06-.09-.09-.13a1.959,1.959,0,1,0-3.2,2.26l.31.48a1.96,1.96,0,0,0,3.29-2.13m0,0-.31-.48c-.03-.04-.06-.09-.09-.13a1.959,1.959,0,1,0-3.2,2.26l.31.48a1.96,1.96,0,0,0,3.29-2.13m-62.08-1.06a1.975,1.975,0,0,0-2.71.58l-.31.48a1.96,1.96,0,1,0,3.29,2.13l.31-.48a1.957,1.957,0,0,0-.58-2.71m86.94,24.14L96,67.64a4.955,4.955,0,0,0-6.82-1.51l-9.37,5.98a4.935,4.935,0,0,0-2.13,5.32c-.29,0-.58-.01-.88-.03a10.88,10.88,0,0,1-4.61-1.38c-3.52-1.73-6.46-2.57-13.81,1.36a6.582,6.582,0,0,0-4.78-2.34,22.45,22.45,0,0,0-6.71,1c-2.96.73-6.01,1.49-8.8.91a4.937,4.937,0,0,0-2.05-5.66l-9.37-5.97a4.931,4.931,0,0,0-6.81,1.5L.772,96.74a4.946,4.946,0,0,0,1.51,6.82l9.37,5.98a4.93,4.93,0,0,0,5.24.03,8.458,8.458,0,0,0-.98,4.68,7.091,7.091,0,0,0,2.66,5.41,7.585,7.585,0,0,0,5.22,1.22,7.835,7.835,0,0,0,2.28,4.47,8.736,8.736,0,0,0,5.72,2.17,6.852,6.852,0,0,0,2.63,3.78c1.67,1.15,3.83,1.52,6.59,1.13a7.372,7.372,0,0,0,7.22,4.47c.12,0,.25,0,.37-.01,1.86-.06,3.66-1.33,5.06-2.66,3.83,2.61,7.1,3.9,9.88,3.9a7.972,7.972,0,0,0,2.61-.42,8.138,8.138,0,0,0,4.74-4.7,8.2,8.2,0,0,0,6.1-.26,8.781,8.781,0,0,0,4.19-5.4,7.727,7.727,0,0,0,5.5-1.33,7.538,7.538,0,0,0,2.68-4.54,10.026,10.026,0,0,0,7.99-2.5,2.109,2.109,0,0,0,.31-.36,9.051,9.051,0,0,0,1.72-7,6.956,6.956,0,0,0-.37-1.2,4.969,4.969,0,0,0,5.2-.07l9.37-5.98a4.932,4.932,0,0,0,1.51-6.81m-56.3-15.94c7.33-4.22,9.15-3.32,11.67-2.09h.01a14.588,14.588,0,0,0,6.12,1.78,21.4,21.4,0,0,0,3.2-.06l15.04,23.58a2.279,2.279,0,0,1-.5.38c-.1-.06-.19-.12-.28-.18-1.3-.81-3.28-2.22-5.56-3.84-12.12-8.64-21-14.49-24.94-11.17-9.57,8.08-14.71,9.24-16.24,8.65-.17-.07-.47-.18-.56-.86-.37-2.77,3.13-9.6,12.04-16.19m-43.63,24.31a1.036,1.036,0,0,1-1.41.31l-9.37-5.98a1.038,1.038,0,0,1-.31-1.41l19.09-29.92a1.022,1.022,0,0,1,.87-.47.949.949,0,0,1,.54.16l9.37,5.97a1.031,1.031,0,0,1,.31,1.41Zm9.33,10.92c-1.66.29-2.9.18-3.61-.35a3.406,3.406,0,0,1-1.07-2.58c-.2-2.38,1.7-4.41,3.72-6.55.41-.44.84-.89,1.24-1.34a2.928,2.928,0,0,1,2.92-.93,3.768,3.768,0,0,1,2.63,2.35c-.57,1.73-2.05,4.88-5.83,9.4m7.86,6.77a5.32,5.32,0,0,1-3.6-1.12,4.668,4.668,0,0,1-1.22-3.18c4.36-5.23,6-9,6.61-10.97a5.988,5.988,0,0,1,5.93-1.48,3.155,3.155,0,0,1,1.9,3.2Zm8.89,4.79c-2.09.42-3.67.3-4.59-.33a3.246,3.246,0,0,1-1.2-2.05l9.61-13.54c2.04-.32,3.63,0,4.4.9.83.98.85,2.78.07,4.96q-3.6,4.38-5.72,6.94c-1.18,1.44-2.09,2.54-2.57,3.12m11.46.99c-1.82,2.43-3.57,3.56-4.23,3.58-2.11.07-3.32-.63-3.98-2.36.45-.54,1.17-1.41,2.34-2.84l5.12-6.22c1.43.46,2.82,1.18,3.11,2.32.19.73-.41,2.92-2.36,5.52m41.83-13.16c-1.53,1.29-3.53,1.67-6.06,1.16l-17.95-12.13-2.2,3.24,17.3,11.69a4.092,4.092,0,0,1-1.31,2.7c-.79.6-2.07.74-3.81.42l-13.83-9.02-2.14,3.27,12.97,8.46a5.224,5.224,0,0,1-2.25,3.23q-1.62.795-4.56-.48l-8.17-5.8a1.958,1.958,0,1,0-2.27,3.19l7.14,5.07a4.515,4.515,0,0,1-2.51,2.76c-1.92.66-4.96-.32-8.67-2.77,1.16-1.66,3.41-5.38,2.64-8.34-.57-2.2-2.3-3.83-5.15-4.87.68-2.9.25-5.4-1.27-7.18-1.48-1.73-3.82-2.55-6.7-2.36a6.687,6.687,0,0,0-4.23-5.25,9.626,9.626,0,0,0-8.5,1.04,7.648,7.648,0,0,0-4.44-2.99,6.856,6.856,0,0,0-6.64,2.06c-.08-.08-.18-.18-.28-.3l14.41-22.58c4.08,1.29,8.31.24,11.78-.62,3.88-.96,5.93-1.31,7.2-.27-7.88,6.24-12.82,13.79-12.16,18.76a4.761,4.761,0,0,0,3.03,4c5.18,2,13.83-3.96,20.15-9.29.06-.03,1.45-.66,7.7,2.99,4.08,2.38,8.73,5.69,12.47,8.35,2.33,1.66,4.35,3.1,5.74,3.97,2.08,1.32,3.29,2.69,3.58,4.08a5.106,5.106,0,0,1-1.01,3.81m17.39-15.81a.994.994,0,0,1-.45.64l-9.37,5.98a1.031,1.031,0,0,1-1.41-.31L81.612,76.82a1.029,1.029,0,0,1,.31-1.41l9.37-5.98a1.041,1.041,0,0,1,1.41.32l19.09,29.92a1.018,1.018,0,0,1,.13.76M89.922,74c-.03-.04-.06-.09-.09-.13a1.959,1.959,0,1,0-3.2,2.26l.31.48a1.96,1.96,0,0,0,3.29-2.13Zm-61.77-.58a1.975,1.975,0,0,0-2.71.58l-.31.48a1.96,1.96,0,1,0,3.29,2.13l.31-.48a1.957,1.957,0,0,0-.58-2.71m0,0a1.975,1.975,0,0,0-2.71.58l-.31.48a1.96,1.96,0,1,0,3.29,2.13l.31-.48a1.957,1.957,0,0,0-.58-2.71m62.08,1.06-.31-.48c-.03-.04-.06-.09-.09-.13a1.959,1.959,0,1,0-3.2,2.26l.31.48a1.96,1.96,0,0,0,3.29-2.13m0,0-.31-.48c-.03-.04-.06-.09-.09-.13a1.959,1.959,0,1,0-3.2,2.26l.31.48a1.96,1.96,0,0,0,3.29-2.13m-62.08-1.06a1.975,1.975,0,0,0-2.71.58l-.31.48a1.96,1.96,0,1,0,3.29,2.13l.31-.48a1.957,1.957,0,0,0-.58-2.71m0,0a1.975,1.975,0,0,0-2.71.58l-.31.48a1.96,1.96,0,1,0,3.29,2.13l.31-.48a1.957,1.957,0,0,0-.58-2.71m62.08,1.06-.31-.48c-.03-.04-.06-.09-.09-.13a1.959,1.959,0,1,0-3.2,2.26l.31.48a1.96,1.96,0,0,0,3.29-2.13m0,0-.31-.48c-.03-.04-.06-.09-.09-.13a1.959,1.959,0,1,0-3.2,2.26l.31.48a1.96,1.96,0,0,0,3.29-2.13m-62.08-1.06a1.975,1.975,0,0,0-2.71.58l-.31.48a1.96,1.96,0,1,0,3.29,2.13l.31-.48a1.957,1.957,0,0,0-.58-2.71m0,0a1.975,1.975,0,0,0-2.71.58l-.31.48a1.96,1.96,0,1,0,3.29,2.13l.31-.48a1.957,1.957,0,0,0-.58-2.71m0,0a1.975,1.975,0,0,0-2.71.58l-.31.48a1.96,1.96,0,1,0,3.29,2.13l.31-.48a1.957,1.957,0,0,0-.58-2.71" fill="#fbb03b"/><path d="M28.732,76.13l-.31.48a1.96,1.96,0,1,1-3.29-2.13l.31-.48a1.96,1.96,0,1,1,3.29,2.13" fill="#fbb03b"/><path d="M89.652,77.19a1.957,1.957,0,0,1-2.71-.58l-.31-.48a1.959,1.959,0,1,1,3.2-2.26c.03.04.06.09.09.13l.31.48a1.957,1.957,0,0,1-.58,2.71" fill="#fbb03b"/><path d="M28.732,76.13l-.31.48a1.96,1.96,0,1,1-3.29-2.13l.31-.48a1.96,1.96,0,1,1,3.29,2.13" fill="#fbb03b"/><path d="M89.652,77.19a1.957,1.957,0,0,1-2.71-.58l-.31-.48a1.959,1.959,0,1,1,3.2-2.26c.03.04.06.09.09.13l.31.48a1.957,1.957,0,0,1-.58,2.71" fill="#fbb03b"/><path d="M72.672,24.87c-.49-.77-.85-1.43-1.14-1.96h-.01c-.76-1.37-1.41-2.55-2.98-2.83-1.2-.22-2.41.24-4.6,1.06-2.09.79-2.69.52-3.6.1a6.064,6.064,0,0,0-4.24-.55c-3.42.76-5.87,2.54-6.89,5.03-1.01,2.46-.59,5.33,1.2,8.1a7.158,7.158,0,0,0,5.85,3.66c.23.02.45.06.68.1a17.794,17.794,0,0,1,1.65,3.4,19.75,19.75,0,0,0,4.08,6.82,3.372,3.372,0,0,0,2.48,1.21,2.921,2.921,0,0,0,1.02-.18c2.66-1.03,2.9-5.63,2.9-5.68.08-4.77.23-4.96,1.09-6.03a23.217,23.217,0,0,0,2.57-3.87c.97-1.79.79-7.03-.06-8.38m-3.4,6.53a19.278,19.278,0,0,1-2.16,3.27c-1.55,1.93-1.86,2.8-1.96,8.41a5.393,5.393,0,0,1-.25,1.33,16.633,16.633,0,0,1-2.67-4.89,21.441,21.441,0,0,0-2.08-4.18,4.349,4.349,0,0,0-3.43-1.75,3.353,3.353,0,0,1-3.02-1.9c-1.07-1.65-1.38-3.24-.87-4.48.53-1.29,1.95-2.22,4.11-2.7a2.884,2.884,0,0,1,.59-.07,2.752,2.752,0,0,1,1.18.36c1.57.72,3.26,1.26,6.6.01.81-.31,1.79-.68,2.32-.82.14.22.3.53.46.82.3.54.67,1.21,1.18,2.02a12.537,12.537,0,0,1,0,4.57m3.4-6.53c-.49-.77-.85-1.43-1.14-1.96h-.01c-.76-1.37-1.41-2.55-2.98-2.83-1.2-.22-2.41.24-4.6,1.06-2.09.79-2.69.52-3.6.1a6.064,6.064,0,0,0-4.24-.55c-3.42.76-5.87,2.54-6.89,5.03-1.01,2.46-.59,5.33,1.2,8.1a7.158,7.158,0,0,0,5.85,3.66c.23.02.45.06.68.1a17.794,17.794,0,0,1,1.65,3.4,19.75,19.75,0,0,0,4.08,6.82,3.372,3.372,0,0,0,2.48,1.21,2.921,2.921,0,0,0,1.02-.18c2.66-1.03,2.9-5.63,2.9-5.68.08-4.77.23-4.96,1.09-6.03a23.217,23.217,0,0,0,2.57-3.87c.97-1.79.79-7.03-.06-8.38m-3.4,6.53a19.278,19.278,0,0,1-2.16,3.27c-1.55,1.93-1.86,2.8-1.96,8.41a5.393,5.393,0,0,1-.25,1.33,16.633,16.633,0,0,1-2.67-4.89,21.441,21.441,0,0,0-2.08-4.18,4.349,4.349,0,0,0-3.43-1.75,3.353,3.353,0,0,1-3.02-1.9c-1.07-1.65-1.38-3.24-.87-4.48.53-1.29,1.95-2.22,4.11-2.7a2.884,2.884,0,0,1,.59-.07,2.752,2.752,0,0,1,1.18.36c1.57.72,3.26,1.26,6.6.01.81-.31,1.79-.68,2.32-.82.14.22.3.53.46.82.3.54.67,1.21,1.18,2.02a12.537,12.537,0,0,1,0,4.57m3.4-6.53c-.49-.77-.85-1.43-1.14-1.96h-.01c-.76-1.37-1.41-2.55-2.98-2.83-1.2-.22-2.41.24-4.6,1.06-2.09.79-2.69.52-3.6.1a6.064,6.064,0,0,0-4.24-.55c-3.42.76-5.87,2.54-6.89,5.03-1.01,2.46-.59,5.33,1.2,8.1a7.158,7.158,0,0,0,5.85,3.66c.23.02.45.06.68.1a17.794,17.794,0,0,1,1.65,3.4,19.75,19.75,0,0,0,4.08,6.82,3.372,3.372,0,0,0,2.48,1.21,2.921,2.921,0,0,0,1.02-.18c2.66-1.03,2.9-5.63,2.9-5.68.08-4.77.23-4.96,1.09-6.03a23.217,23.217,0,0,0,2.57-3.87c.97-1.79.79-7.03-.06-8.38m-3.4,6.53a19.278,19.278,0,0,1-2.16,3.27c-1.55,1.93-1.86,2.8-1.96,8.41a5.393,5.393,0,0,1-.25,1.33,16.633,16.633,0,0,1-2.67-4.89,21.441,21.441,0,0,0-2.08-4.18,4.349,4.349,0,0,0-3.43-1.75,3.353,3.353,0,0,1-3.02-1.9c-1.07-1.65-1.38-3.24-.87-4.48.53-1.29,1.95-2.22,4.11-2.7a2.884,2.884,0,0,1,.59-.07,2.752,2.752,0,0,1,1.18.36c1.57.72,3.26,1.26,6.6.01.81-.31,1.79-.68,2.32-.82.14.22.3.53.46.82.3.54.67,1.21,1.18,2.02a12.537,12.537,0,0,1,0,4.57m3.4-6.53c-.49-.77-.85-1.43-1.14-1.96h-.01c-.76-1.37-1.41-2.55-2.98-2.83-1.2-.22-2.41.24-4.6,1.06-2.09.79-2.69.52-3.6.1a6.064,6.064,0,0,0-4.24-.55c-3.42.76-5.87,2.54-6.89,5.03-1.01,2.46-.59,5.33,1.2,8.1a7.158,7.158,0,0,0,5.85,3.66c.23.02.45.06.68.1a17.794,17.794,0,0,1,1.65,3.4,19.75,19.75,0,0,0,4.08,6.82,3.372,3.372,0,0,0,2.48,1.21,2.921,2.921,0,0,0,1.02-.18c2.66-1.03,2.9-5.63,2.9-5.68.08-4.77.23-4.96,1.09-6.03a23.217,23.217,0,0,0,2.57-3.87c.97-1.79.79-7.03-.06-8.38m-3.4,6.53a19.278,19.278,0,0,1-2.16,3.27c-1.55,1.93-1.86,2.8-1.96,8.41a5.393,5.393,0,0,1-.25,1.33,16.633,16.633,0,0,1-2.67-4.89,21.441,21.441,0,0,0-2.08-4.18,4.349,4.349,0,0,0-3.43-1.75,3.353,3.353,0,0,1-3.02-1.9c-1.07-1.65-1.38-3.24-.87-4.48.53-1.29,1.95-2.22,4.11-2.7a2.884,2.884,0,0,1,.59-.07,2.752,2.752,0,0,1,1.18.36c1.57.72,3.26,1.26,6.6.01.81-.31,1.79-.68,2.32-.82.14.22.3.53.46.82.3.54.67,1.21,1.18,2.02a12.537,12.537,0,0,1,0,4.57m3.4-6.53c-.49-.77-.85-1.43-1.14-1.96h-.01c-.76-1.37-1.41-2.55-2.98-2.83-1.2-.22-2.41.24-4.6,1.06-2.09.79-2.69.52-3.6.1a6.064,6.064,0,0,0-4.24-.55c-3.42.76-5.87,2.54-6.89,5.03-1.01,2.46-.59,5.33,1.2,8.1a7.158,7.158,0,0,0,5.85,3.66c.23.02.45.06.68.1a17.794,17.794,0,0,1,1.65,3.4,19.75,19.75,0,0,0,4.08,6.82,3.372,3.372,0,0,0,2.48,1.21,2.921,2.921,0,0,0,1.02-.18c2.66-1.03,2.9-5.63,2.9-5.68.08-4.77.23-4.96,1.09-6.03a23.217,23.217,0,0,0,2.57-3.87c.97-1.79.79-7.03-.06-8.38m-3.4,6.53a19.278,19.278,0,0,1-2.16,3.27c-1.55,1.93-1.86,2.8-1.96,8.41a5.393,5.393,0,0,1-.25,1.33,16.633,16.633,0,0,1-2.67-4.89,21.441,21.441,0,0,0-2.08-4.18,4.349,4.349,0,0,0-3.43-1.75,3.353,3.353,0,0,1-3.02-1.9c-1.07-1.65-1.38-3.24-.87-4.48.53-1.29,1.95-2.22,4.11-2.7a2.884,2.884,0,0,1,.59-.07,2.752,2.752,0,0,1,1.18.36c1.57.72,3.26,1.26,6.6.01.81-.31,1.79-.68,2.32-.82.14.22.3.53.46.82.3.54.67,1.21,1.18,2.02a12.537,12.537,0,0,1,0,4.57m3.4-6.53c-.49-.77-.85-1.43-1.14-1.96h-.01c-.76-1.37-1.41-2.55-2.98-2.83-1.2-.22-2.41.24-4.6,1.06-2.09.79-2.69.52-3.6.1a6.064,6.064,0,0,0-4.24-.55c-3.42.76-5.87,2.54-6.89,5.03-1.01,2.46-.59,5.33,1.2,8.1a7.158,7.158,0,0,0,5.85,3.66c.23.02.45.06.68.1a17.794,17.794,0,0,1,1.65,3.4,19.75,19.75,0,0,0,4.08,6.82,3.372,3.372,0,0,0,2.48,1.21,2.921,2.921,0,0,0,1.02-.18c2.66-1.03,2.9-5.63,2.9-5.68.08-4.77.23-4.96,1.09-6.03a23.217,23.217,0,0,0,2.57-3.87c.97-1.79.79-7.03-.06-8.38m-3.4,6.53a19.278,19.278,0,0,1-2.16,3.27c-1.55,1.93-1.86,2.8-1.96,8.41a5.393,5.393,0,0,1-.25,1.33,16.633,16.633,0,0,1-2.67-4.89,21.441,21.441,0,0,0-2.08-4.18,4.349,4.349,0,0,0-3.43-1.75,3.353,3.353,0,0,1-3.02-1.9c-1.07-1.65-1.38-3.24-.87-4.48.53-1.29,1.95-2.22,4.11-2.7a2.884,2.884,0,0,1,.59-.07,2.752,2.752,0,0,1,1.18.36c1.57.72,3.26,1.26,6.6.01.81-.31,1.79-.68,2.32-.82.14.22.3.53.46.82.3.54.67,1.21,1.18,2.02a12.537,12.537,0,0,1,0,4.57m3.4-6.53c-.49-.77-.85-1.43-1.14-1.96h-.01c-.76-1.37-1.41-2.55-2.98-2.83-1.2-.22-2.41.24-4.6,1.06-2.09.79-2.69.52-3.6.1a6.064,6.064,0,0,0-4.24-.55c-3.42.76-5.87,2.54-6.89,5.03-1.01,2.46-.59,5.33,1.2,8.1a7.158,7.158,0,0,0,5.85,3.66c.23.02.45.06.68.1a17.794,17.794,0,0,1,1.65,3.4,19.75,19.75,0,0,0,4.08,6.82,3.372,3.372,0,0,0,2.48,1.21,2.921,2.921,0,0,0,1.02-.18c2.66-1.03,2.9-5.63,2.9-5.68.08-4.77.23-4.96,1.09-6.03a23.217,23.217,0,0,0,2.57-3.87c.97-1.79.79-7.03-.06-8.38m-3.4,6.53a19.278,19.278,0,0,1-2.16,3.27c-1.55,1.93-1.86,2.8-1.96,8.41a5.393,5.393,0,0,1-.25,1.33,16.633,16.633,0,0,1-2.67-4.89,21.441,21.441,0,0,0-2.08-4.18,4.349,4.349,0,0,0-3.43-1.75,3.353,3.353,0,0,1-3.02-1.9c-1.07-1.65-1.38-3.24-.87-4.48.53-1.29,1.95-2.22,4.11-2.7a2.884,2.884,0,0,1,.59-.07,2.752,2.752,0,0,1,1.18.36c1.57.72,3.26,1.26,6.6.01.81-.31,1.79-.68,2.32-.82.14.22.3.53.46.82.3.54.67,1.21,1.18,2.02a12.537,12.537,0,0,1,0,4.57m3.4-6.53c-.49-.77-.85-1.43-1.14-1.96h-.01c-.76-1.37-1.41-2.55-2.98-2.83-1.2-.22-2.41.24-4.6,1.06-2.09.79-2.69.52-3.6.1a6.064,6.064,0,0,0-4.24-.55c-3.42.76-5.87,2.54-6.89,5.03-1.01,2.46-.59,5.33,1.2,8.1a7.158,7.158,0,0,0,5.85,3.66c.23.02.45.06.68.1a17.794,17.794,0,0,1,1.65,3.4,19.75,19.75,0,0,0,4.08,6.82,3.372,3.372,0,0,0,2.48,1.21,2.921,2.921,0,0,0,1.02-.18c2.66-1.03,2.9-5.63,2.9-5.68.08-4.77.23-4.96,1.09-6.03a23.217,23.217,0,0,0,2.57-3.87c.97-1.79.79-7.03-.06-8.38m-3.4,6.53a19.278,19.278,0,0,1-2.16,3.27c-1.55,1.93-1.86,2.8-1.96,8.41a5.393,5.393,0,0,1-.25,1.33,16.633,16.633,0,0,1-2.67-4.89,21.441,21.441,0,0,0-2.08-4.18,4.349,4.349,0,0,0-3.43-1.75,3.353,3.353,0,0,1-3.02-1.9c-1.07-1.65-1.38-3.24-.87-4.48.53-1.29,1.95-2.22,4.11-2.7a2.884,2.884,0,0,1,.59-.07,2.752,2.752,0,0,1,1.18.36c1.57.72,3.26,1.26,6.6.01.81-.31,1.79-.68,2.32-.82.14.22.3.53.46.82.3.54.67,1.21,1.18,2.02a12.537,12.537,0,0,1,0,4.57m3.4-6.53c-.49-.77-.85-1.43-1.14-1.96h-.01c-.76-1.37-1.41-2.55-2.98-2.83-1.2-.22-2.41.24-4.6,1.06-2.09.79-2.69.52-3.6.1a6.064,6.064,0,0,0-4.24-.55c-3.42.76-5.87,2.54-6.89,5.03-1.01,2.46-.59,5.33,1.2,8.1a7.158,7.158,0,0,0,5.85,3.66c.23.02.45.06.68.1a17.794,17.794,0,0,1,1.65,3.4,19.75,19.75,0,0,0,4.08,6.82,3.372,3.372,0,0,0,2.48,1.21,2.921,2.921,0,0,0,1.02-.18c2.66-1.03,2.9-5.63,2.9-5.68.08-4.77.23-4.96,1.09-6.03a23.217,23.217,0,0,0,2.57-3.87c.97-1.79.79-7.03-.06-8.38m-3.4,6.53a19.278,19.278,0,0,1-2.16,3.27c-1.55,1.93-1.86,2.8-1.96,8.41a5.393,5.393,0,0,1-.25,1.33,16.633,16.633,0,0,1-2.67-4.89,21.441,21.441,0,0,0-2.08-4.18,4.349,4.349,0,0,0-3.43-1.75,3.353,3.353,0,0,1-3.02-1.9c-1.07-1.65-1.38-3.24-.87-4.48.53-1.29,1.95-2.22,4.11-2.7a2.884,2.884,0,0,1,.59-.07,2.752,2.752,0,0,1,1.18.36c1.57.72,3.26,1.26,6.6.01.81-.31,1.79-.68,2.32-.82.14.22.3.53.46.82.3.54.67,1.21,1.18,2.02a12.537,12.537,0,0,1,0,4.57m3.4-6.53c-.49-.77-.85-1.43-1.14-1.96h-.01c-.76-1.37-1.41-2.55-2.98-2.83-1.2-.22-2.41.24-4.6,1.06-2.09.79-2.69.52-3.6.1a6.064,6.064,0,0,0-4.24-.55c-3.42.76-5.87,2.54-6.89,5.03-1.01,2.46-.59,5.33,1.2,8.1a7.158,7.158,0,0,0,5.85,3.66c.23.02.45.06.68.1a17.794,17.794,0,0,1,1.65,3.4,19.75,19.75,0,0,0,4.08,6.82,3.372,3.372,0,0,0,2.48,1.21,2.921,2.921,0,0,0,1.02-.18c2.66-1.03,2.9-5.63,2.9-5.68.08-4.77.23-4.96,1.09-6.03a23.217,23.217,0,0,0,2.57-3.87c.97-1.79.79-7.03-.06-8.38m-3.4,6.53a19.278,19.278,0,0,1-2.16,3.27c-1.55,1.93-1.86,2.8-1.96,8.41a5.393,5.393,0,0,1-.25,1.33,16.633,16.633,0,0,1-2.67-4.89,21.441,21.441,0,0,0-2.08-4.18,4.349,4.349,0,0,0-3.43-1.75,3.353,3.353,0,0,1-3.02-1.9c-1.07-1.65-1.38-3.24-.87-4.48.53-1.29,1.95-2.22,4.11-2.7a2.884,2.884,0,0,1,.59-.07,2.752,2.752,0,0,1,1.18.36c1.57.72,3.26,1.26,6.6.01.81-.31,1.79-.68,2.32-.82.14.22.3.53.46.82.3.54.67,1.21,1.18,2.02a12.537,12.537,0,0,1,0,4.57m3.4-6.53c-.49-.77-.85-1.43-1.14-1.96h-.01c-.76-1.37-1.41-2.55-2.98-2.83-1.2-.22-2.41.24-4.6,1.06-2.09.79-2.69.52-3.6.1a6.064,6.064,0,0,0-4.24-.55c-3.42.76-5.87,2.54-6.89,5.03-1.01,2.46-.59,5.33,1.2,8.1a7.158,7.158,0,0,0,5.85,3.66c.23.02.45.06.68.1a17.794,17.794,0,0,1,1.65,3.4,19.75,19.75,0,0,0,4.08,6.82,3.372,3.372,0,0,0,2.48,1.21,2.921,2.921,0,0,0,1.02-.18c2.66-1.03,2.9-5.63,2.9-5.68.08-4.77.23-4.96,1.09-6.03a23.217,23.217,0,0,0,2.57-3.87c.97-1.79.79-7.03-.06-8.38m-3.4,6.53a19.278,19.278,0,0,1-2.16,3.27c-1.55,1.93-1.86,2.8-1.96,8.41a5.393,5.393,0,0,1-.25,1.33,16.633,16.633,0,0,1-2.67-4.89,21.441,21.441,0,0,0-2.08-4.18,4.349,4.349,0,0,0-3.43-1.75,3.353,3.353,0,0,1-3.02-1.9c-1.07-1.65-1.38-3.24-.87-4.48.53-1.29,1.95-2.22,4.11-2.7a2.884,2.884,0,0,1,.59-.07,2.752,2.752,0,0,1,1.18.36c1.57.72,3.26,1.26,6.6.01.81-.31,1.79-.68,2.32-.82.14.22.3.53.46.82.3.54.67,1.21,1.18,2.02a12.537,12.537,0,0,1,0,4.57m3.4-6.53c-.49-.77-.85-1.43-1.14-1.96h-.01c-.76-1.37-1.41-2.55-2.98-2.83-1.2-.22-2.41.24-4.6,1.06-2.09.79-2.69.52-3.6.1a6.064,6.064,0,0,0-4.24-.55c-3.42.76-5.87,2.54-6.89,5.03-1.01,2.46-.59,5.33,1.2,8.1a7.158,7.158,0,0,0,5.85,3.66c.23.02.45.06.68.1a17.794,17.794,0,0,1,1.65,3.4,19.75,19.75,0,0,0,4.08,6.82,3.372,3.372,0,0,0,2.48,1.21,2.921,2.921,0,0,0,1.02-.18c2.66-1.03,2.9-5.63,2.9-5.68.08-4.77.23-4.96,1.09-6.03a23.217,23.217,0,0,0,2.57-3.87c.97-1.79.79-7.03-.06-8.38m-3.4,6.53a19.278,19.278,0,0,1-2.16,3.27c-1.55,1.93-1.86,2.8-1.96,8.41a5.393,5.393,0,0,1-.25,1.33,16.633,16.633,0,0,1-2.67-4.89,21.441,21.441,0,0,0-2.08-4.18,4.349,4.349,0,0,0-3.43-1.75,3.353,3.353,0,0,1-3.02-1.9c-1.07-1.65-1.38-3.24-.87-4.48.53-1.29,1.95-2.22,4.11-2.7a2.884,2.884,0,0,1,.59-.07,2.752,2.752,0,0,1,1.18.36c1.57.72,3.26,1.26,6.6.01.81-.31,1.79-.68,2.32-.82.14.22.3.53.46.82.3.54.67,1.21,1.18,2.02a12.537,12.537,0,0,1,0,4.57m3.4-6.53c-.49-.77-.85-1.43-1.14-1.96h-.01c-.76-1.37-1.41-2.55-2.98-2.83-1.2-.22-2.41.24-4.6,1.06-2.09.79-2.69.52-3.6.1a6.064,6.064,0,0,0-4.24-.55c-3.42.76-5.87,2.54-6.89,5.03-1.01,2.46-.59,5.33,1.2,8.1a7.158,7.158,0,0,0,5.85,3.66c.23.02.45.06.68.1a17.794,17.794,0,0,1,1.65,3.4,19.75,19.75,0,0,0,4.08,6.82,3.372,3.372,0,0,0,2.48,1.21,2.921,2.921,0,0,0,1.02-.18c2.66-1.03,2.9-5.63,2.9-5.68.08-4.77.23-4.96,1.09-6.03a23.217,23.217,0,0,0,2.57-3.87c.97-1.79.79-7.03-.06-8.38m-3.4,6.53a19.278,19.278,0,0,1-2.16,3.27c-1.55,1.93-1.86,2.8-1.96,8.41a5.393,5.393,0,0,1-.25,1.33,16.633,16.633,0,0,1-2.67-4.89,21.441,21.441,0,0,0-2.08-4.18,4.349,4.349,0,0,0-3.43-1.75,3.353,3.353,0,0,1-3.02-1.9c-1.07-1.65-1.38-3.24-.87-4.48.53-1.29,1.95-2.22,4.11-2.7a2.884,2.884,0,0,1,.59-.07,2.752,2.752,0,0,1,1.18.36c1.57.72,3.26,1.26,6.6.01.81-.31,1.79-.68,2.32-.82.14.22.3.53.46.82.3.54.67,1.21,1.18,2.02a12.537,12.537,0,0,1,0,4.57m3.4-6.53c-.49-.77-.85-1.43-1.14-1.96h-.01c-.76-1.37-1.41-2.55-2.98-2.83-1.2-.22-2.41.24-4.6,1.06-2.09.79-2.69.52-3.6.1a6.064,6.064,0,0,0-4.24-.55c-3.42.76-5.87,2.54-6.89,5.03-1.01,2.46-.59,5.33,1.2,8.1a7.158,7.158,0,0,0,5.85,3.66c.23.02.45.06.68.1a17.794,17.794,0,0,1,1.65,3.4,19.75,19.75,0,0,0,4.08,6.82,3.372,3.372,0,0,0,2.48,1.21,2.921,2.921,0,0,0,1.02-.18c2.66-1.03,2.9-5.63,2.9-5.68.08-4.77.23-4.96,1.09-6.03a23.217,23.217,0,0,0,2.57-3.87c.97-1.79.79-7.03-.06-8.38m-3.4,6.53a19.278,19.278,0,0,1-2.16,3.27c-1.55,1.93-1.86,2.8-1.96,8.41a5.393,5.393,0,0,1-.25,1.33,16.633,16.633,0,0,1-2.67-4.89,21.441,21.441,0,0,0-2.08-4.18,4.349,4.349,0,0,0-3.43-1.75,3.353,3.353,0,0,1-3.02-1.9c-1.07-1.65-1.38-3.24-.87-4.48.53-1.29,1.95-2.22,4.11-2.7a2.884,2.884,0,0,1,.59-.07,2.752,2.752,0,0,1,1.18.36c1.57.72,3.26,1.26,6.6.01.81-.31,1.79-.68,2.32-.82.14.22.3.53.46.82.3.54.67,1.21,1.18,2.02a12.537,12.537,0,0,1,0,4.57M57.932,0a32.272,32.272,0,1,0,32.26,32.26A32.262,32.262,0,0,0,57.932,0m10.23,5.83h.01a8.993,8.993,0,0,1-1.36,1.99,8.658,8.658,0,0,0-5.68.35,1.984,1.984,0,0,0-.72.53c-3.29,3.86-4.75,4.32-5.08,4.38a18.963,18.963,0,0,0-14.12-.66,4.547,4.547,0,0,1-1.75-1.65,28.3,28.3,0,0,1,28.7-4.94M53.022,54.01a2.321,2.321,0,0,0-.22.57c-.51,2.44-1.3,4.16-2.31,5.03a28.392,28.392,0,0,1-20.83-25.32,9.274,9.274,0,0,0,2.77.44,1.553,1.553,0,0,0,.37-.04c5.28-1,7.12.91,8.03,2.52,1.74,5.14,1.33,6.91,1.07,7.44a1.915,1.915,0,0,0-.18,1.2,3.757,3.757,0,0,0,1.59,2.52c1.31.9,3.22,1.11,5.98.64,3.05,1.48,3.85,2.7,4.04,3.31a1.964,1.964,0,0,1-.31,1.69m4.91,6.59a26.888,26.888,0,0,1-3.11-.17,16.483,16.483,0,0,0,1.76-4.75,5.812,5.812,0,0,0,.48-4.56c-.73-2.28-2.93-4.22-6.7-5.93a1.988,1.988,0,0,0-1.18-.13,8.469,8.469,0,0,1-3.36.2c.55-2.18.11-5.24-1.33-9.47a2.082,2.082,0,0,0-.13-.3c-1.55-2.86-4.89-5.98-12.09-4.68a5.976,5.976,0,0,1-2.6-.73,28.281,28.281,0,0,1,6.97-16.51,8.1,8.1,0,0,0,3.92,2.82,1.959,1.959,0,0,0,1.33-.04,14.96,14.96,0,0,1,12.15.44,2.285,2.285,0,0,0,.37.12,4.022,4.022,0,0,0,.85.09c2.14,0,4.6-1.7,7.8-5.37a5.345,5.345,0,0,1,3.61.25,1.949,1.949,0,0,0,2.01-.39A13.409,13.409,0,0,0,71.7,7.5a28.5,28.5,0,0,1,10.14,9.56,2.009,2.009,0,0,1-.54,1.2,1.933,1.933,0,0,1-1.36-.1,1.952,1.952,0,0,0-2.35,2.72c5.48,11.26.94,13.92-.55,14.79a1.964,1.964,0,0,0-.6.55c-3.48,4.83-5.38,8.92-5.82,12.51a9.974,9.974,0,0,0,2.06,7.72,28.123,28.123,0,0,1-14.75,4.15m17.93-6.4c-1.63-1.79-3.25-5.83,3.53-15.38,3.68-2.33,6.8-7.09,2.99-16.78a4.076,4.076,0,0,0,1.61-.93,28.33,28.33,0,0,1-8.13,33.09m-3.19-29.33c-.49-.77-.85-1.43-1.14-1.96h-.01c-.76-1.37-1.41-2.55-2.98-2.83-1.2-.22-2.41.24-4.6,1.06-2.09.79-2.69.52-3.6.1a6.064,6.064,0,0,0-4.24-.55c-3.42.76-5.87,2.54-6.89,5.03-1.01,2.46-.59,5.33,1.2,8.1a7.158,7.158,0,0,0,5.85,3.66c.23.02.45.06.68.1a17.794,17.794,0,0,1,1.65,3.4,19.75,19.75,0,0,0,4.08,6.82,3.372,3.372,0,0,0,2.48,1.21,2.921,2.921,0,0,0,1.02-.18c2.66-1.03,2.9-5.63,2.9-5.68.08-4.77.23-4.96,1.09-6.03a23.217,23.217,0,0,0,2.57-3.87c.97-1.79.79-7.03-.06-8.38m-3.4,6.53a19.278,19.278,0,0,1-2.16,3.27c-1.55,1.93-1.86,2.8-1.96,8.41a5.393,5.393,0,0,1-.25,1.33,16.633,16.633,0,0,1-2.67-4.89,21.441,21.441,0,0,0-2.08-4.18,4.349,4.349,0,0,0-3.43-1.75,3.353,3.353,0,0,1-3.02-1.9c-1.07-1.65-1.38-3.24-.87-4.48.53-1.29,1.95-2.22,4.11-2.7a2.884,2.884,0,0,1,.59-.07,2.752,2.752,0,0,1,1.18.36c1.57.72,3.26,1.26,6.6.01.81-.31,1.79-.68,2.32-.82.14.22.3.53.46.82.3.54.67,1.21,1.18,2.02a12.537,12.537,0,0,1,0,4.57m3.4-6.53c-.49-.77-.85-1.43-1.14-1.96h-.01c-.76-1.37-1.41-2.55-2.98-2.83-1.2-.22-2.41.24-4.6,1.06-2.09.79-2.69.52-3.6.1a6.064,6.064,0,0,0-4.24-.55c-3.42.76-5.87,2.54-6.89,5.03-1.01,2.46-.59,5.33,1.2,8.1a7.158,7.158,0,0,0,5.85,3.66c.23.02.45.06.68.1a17.794,17.794,0,0,1,1.65,3.4,19.75,19.75,0,0,0,4.08,6.82,3.372,3.372,0,0,0,2.48,1.21,2.921,2.921,0,0,0,1.02-.18c2.66-1.03,2.9-5.63,2.9-5.68.08-4.77.23-4.96,1.09-6.03a23.217,23.217,0,0,0,2.57-3.87c.97-1.79.79-7.03-.06-8.38m-3.4,6.53a19.278,19.278,0,0,1-2.16,3.27c-1.55,1.93-1.86,2.8-1.96,8.41a5.393,5.393,0,0,1-.25,1.33,16.633,16.633,0,0,1-2.67-4.89,21.441,21.441,0,0,0-2.08-4.18,4.349,4.349,0,0,0-3.43-1.75,3.353,3.353,0,0,1-3.02-1.9c-1.07-1.65-1.38-3.24-.87-4.48.53-1.29,1.95-2.22,4.11-2.7a2.884,2.884,0,0,1,.59-.07,2.752,2.752,0,0,1,1.18.36c1.57.72,3.26,1.26,6.6.01.81-.31,1.79-.68,2.32-.82.14.22.3.53.46.82.3.54.67,1.21,1.18,2.02a12.537,12.537,0,0,1,0,4.57m3.4-6.53c-.49-.77-.85-1.43-1.14-1.96h-.01c-.76-1.37-1.41-2.55-2.98-2.83-1.2-.22-2.41.24-4.6,1.06-2.09.79-2.69.52-3.6.1a6.064,6.064,0,0,0-4.24-.55c-3.42.76-5.87,2.54-6.89,5.03-1.01,2.46-.59,5.33,1.2,8.1a7.158,7.158,0,0,0,5.85,3.66c.23.02.45.06.68.1a17.794,17.794,0,0,1,1.65,3.4,19.75,19.75,0,0,0,4.08,6.82,3.372,3.372,0,0,0,2.48,1.21,2.921,2.921,0,0,0,1.02-.18c2.66-1.03,2.9-5.63,2.9-5.68.08-4.77.23-4.96,1.09-6.03a23.217,23.217,0,0,0,2.57-3.87c.97-1.79.79-7.03-.06-8.38m-3.4,6.53a19.278,19.278,0,0,1-2.16,3.27c-1.55,1.93-1.86,2.8-1.96,8.41a5.393,5.393,0,0,1-.25,1.33,16.633,16.633,0,0,1-2.67-4.89,21.441,21.441,0,0,0-2.08-4.18,4.349,4.349,0,0,0-3.43-1.75,3.353,3.353,0,0,1-3.02-1.9c-1.07-1.65-1.38-3.24-.87-4.48.53-1.29,1.95-2.22,4.11-2.7a2.884,2.884,0,0,1,.59-.07,2.752,2.752,0,0,1,1.18.36c1.57.72,3.26,1.26,6.6.01.81-.31,1.79-.68,2.32-.82.14.22.3.53.46.82.3.54.67,1.21,1.18,2.02a12.537,12.537,0,0,1,0,4.57m3.4-6.53c-.49-.77-.85-1.43-1.14-1.96h-.01c-.76-1.37-1.41-2.55-2.98-2.83-1.2-.22-2.41.24-4.6,1.06-2.09.79-2.69.52-3.6.1a6.064,6.064,0,0,0-4.24-.55c-3.42.76-5.87,2.54-6.89,5.03-1.01,2.46-.59,5.33,1.2,8.1a7.158,7.158,0,0,0,5.85,3.66c.23.02.45.06.68.1a17.794,17.794,0,0,1,1.65,3.4,19.75,19.75,0,0,0,4.08,6.82,3.372,3.372,0,0,0,2.48,1.21,2.921,2.921,0,0,0,1.02-.18c2.66-1.03,2.9-5.63,2.9-5.68.08-4.77.23-4.96,1.09-6.03a23.217,23.217,0,0,0,2.57-3.87c.97-1.79.79-7.03-.06-8.38m-3.4,6.53a19.278,19.278,0,0,1-2.16,3.27c-1.55,1.93-1.86,2.8-1.96,8.41a5.393,5.393,0,0,1-.25,1.33,16.633,16.633,0,0,1-2.67-4.89,21.441,21.441,0,0,0-2.08-4.18,4.349,4.349,0,0,0-3.43-1.75,3.353,3.353,0,0,1-3.02-1.9c-1.07-1.65-1.38-3.24-.87-4.48.53-1.29,1.95-2.22,4.11-2.7a2.884,2.884,0,0,1,.59-.07,2.752,2.752,0,0,1,1.18.36c1.57.72,3.26,1.26,6.6.01.81-.31,1.79-.68,2.32-.82.14.22.3.53.46.82.3.54.67,1.21,1.18,2.02a12.537,12.537,0,0,1,0,4.57m3.4-6.53c-.49-.77-.85-1.43-1.14-1.96h-.01c-.76-1.37-1.41-2.55-2.98-2.83-1.2-.22-2.41.24-4.6,1.06-2.09.79-2.69.52-3.6.1a6.064,6.064,0,0,0-4.24-.55c-3.42.76-5.87,2.54-6.89,5.03-1.01,2.46-.59,5.33,1.2,8.1a7.158,7.158,0,0,0,5.85,3.66c.23.02.45.06.68.1a17.794,17.794,0,0,1,1.65,3.4,19.75,19.75,0,0,0,4.08,6.82,3.372,3.372,0,0,0,2.48,1.21,2.921,2.921,0,0,0,1.02-.18c2.66-1.03,2.9-5.63,2.9-5.68.08-4.77.23-4.96,1.09-6.03a23.217,23.217,0,0,0,2.57-3.87c.97-1.79.79-7.03-.06-8.38m-3.4,6.53a19.278,19.278,0,0,1-2.16,3.27c-1.55,1.93-1.86,2.8-1.96,8.41a5.393,5.393,0,0,1-.25,1.33,16.633,16.633,0,0,1-2.67-4.89,21.441,21.441,0,0,0-2.08-4.18,4.349,4.349,0,0,0-3.43-1.75,3.353,3.353,0,0,1-3.02-1.9c-1.07-1.65-1.38-3.24-.87-4.48.53-1.29,1.95-2.22,4.11-2.7a2.884,2.884,0,0,1,.59-.07,2.752,2.752,0,0,1,1.18.36c1.57.72,3.26,1.26,6.6.01.81-.31,1.79-.68,2.32-.82.14.22.3.53.46.82.3.54.67,1.21,1.18,2.02a12.537,12.537,0,0,1,0,4.57m3.4-6.53c-.49-.77-.85-1.43-1.14-1.96h-.01c-.76-1.37-1.41-2.55-2.98-2.83-1.2-.22-2.41.24-4.6,1.06-2.09.79-2.69.52-3.6.1a6.064,6.064,0,0,0-4.24-.55c-3.42.76-5.87,2.54-6.89,5.03-1.01,2.46-.59,5.33,1.2,8.1a7.158,7.158,0,0,0,5.85,3.66c.23.02.45.06.68.1a17.794,17.794,0,0,1,1.65,3.4,19.75,19.75,0,0,0,4.08,6.82,3.372,3.372,0,0,0,2.48,1.21,2.921,2.921,0,0,0,1.02-.18c2.66-1.03,2.9-5.63,2.9-5.68.08-4.77.23-4.96,1.09-6.03a23.217,23.217,0,0,0,2.57-3.87c.97-1.79.79-7.03-.06-8.38m-3.4,6.53a19.278,19.278,0,0,1-2.16,3.27c-1.55,1.93-1.86,2.8-1.96,8.41a5.393,5.393,0,0,1-.25,1.33,16.633,16.633,0,0,1-2.67-4.89,21.441,21.441,0,0,0-2.08-4.18,4.349,4.349,0,0,0-3.43-1.75,3.353,3.353,0,0,1-3.02-1.9c-1.07-1.65-1.38-3.24-.87-4.48.53-1.29,1.95-2.22,4.11-2.7a2.884,2.884,0,0,1,.59-.07,2.752,2.752,0,0,1,1.18.36c1.57.72,3.26,1.26,6.6.01.81-.31,1.79-.68,2.32-.82.14.22.3.53.46.82.3.54.67,1.21,1.18,2.02a12.537,12.537,0,0,1,0,4.57m3.4-6.53c-.49-.77-.85-1.43-1.14-1.96h-.01c-.76-1.37-1.41-2.55-2.98-2.83-1.2-.22-2.41.24-4.6,1.06-2.09.79-2.69.52-3.6.1a6.064,6.064,0,0,0-4.24-.55c-3.42.76-5.87,2.54-6.89,5.03-1.01,2.46-.59,5.33,1.2,8.1a7.158,7.158,0,0,0,5.85,3.66c.23.02.45.06.68.1a17.794,17.794,0,0,1,1.65,3.4,19.75,19.75,0,0,0,4.08,6.82,3.372,3.372,0,0,0,2.48,1.21,2.921,2.921,0,0,0,1.02-.18c2.66-1.03,2.9-5.63,2.9-5.68.08-4.77.23-4.96,1.09-6.03a23.217,23.217,0,0,0,2.57-3.87c.97-1.79.79-7.03-.06-8.38m-3.4,6.53a19.278,19.278,0,0,1-2.16,3.27c-1.55,1.93-1.86,2.8-1.96,8.41a5.393,5.393,0,0,1-.25,1.33,16.633,16.633,0,0,1-2.67-4.89,21.441,21.441,0,0,0-2.08-4.18,4.349,4.349,0,0,0-3.43-1.75,3.353,3.353,0,0,1-3.02-1.9c-1.07-1.65-1.38-3.24-.87-4.48.53-1.29,1.95-2.22,4.11-2.7a2.884,2.884,0,0,1,.59-.07,2.752,2.752,0,0,1,1.18.36c1.57.72,3.26,1.26,6.6.01.81-.31,1.79-.68,2.32-.82.14.22.3.53.46.82.3.54.67,1.21,1.18,2.02a12.537,12.537,0,0,1,0,4.57m3.4-6.53c-.49-.77-.85-1.43-1.14-1.96h-.01c-.76-1.37-1.41-2.55-2.98-2.83-1.2-.22-2.41.24-4.6,1.06-2.09.79-2.69.52-3.6.1a6.064,6.064,0,0,0-4.24-.55c-3.42.76-5.87,2.54-6.89,5.03-1.01,2.46-.59,5.33,1.2,8.1a7.158,7.158,0,0,0,5.85,3.66c.23.02.45.06.68.1a17.794,17.794,0,0,1,1.65,3.4,19.75,19.75,0,0,0,4.08,6.82,3.372,3.372,0,0,0,2.48,1.21,2.921,2.921,0,0,0,1.02-.18c2.66-1.03,2.9-5.63,2.9-5.68.08-4.77.23-4.96,1.09-6.03a23.217,23.217,0,0,0,2.57-3.87c.97-1.79.79-7.03-.06-8.38m-3.4,6.53a19.278,19.278,0,0,1-2.16,3.27c-1.55,1.93-1.86,2.8-1.96,8.41a5.393,5.393,0,0,1-.25,1.33,16.633,16.633,0,0,1-2.67-4.89,21.441,21.441,0,0,0-2.08-4.18,4.349,4.349,0,0,0-3.43-1.75,3.353,3.353,0,0,1-3.02-1.9c-1.07-1.65-1.38-3.24-.87-4.48.53-1.29,1.95-2.22,4.11-2.7a2.884,2.884,0,0,1,.59-.07,2.752,2.752,0,0,1,1.18.36c1.57.72,3.26,1.26,6.6.01.81-.31,1.79-.68,2.32-.82.14.22.3.53.46.82.3.54.67,1.21,1.18,2.02a12.537,12.537,0,0,1,0,4.57m3.4-6.53c-.49-.77-.85-1.43-1.14-1.96h-.01c-.76-1.37-1.41-2.55-2.98-2.83-1.2-.22-2.41.24-4.6,1.06-2.09.79-2.69.52-3.6.1a6.064,6.064,0,0,0-4.24-.55c-3.42.76-5.87,2.54-6.89,5.03-1.01,2.46-.59,5.33,1.2,8.1a7.158,7.158,0,0,0,5.85,3.66c.23.02.45.06.68.1a17.794,17.794,0,0,1,1.65,3.4,19.75,19.75,0,0,0,4.08,6.82,3.372,3.372,0,0,0,2.48,1.21,2.921,2.921,0,0,0,1.02-.18c2.66-1.03,2.9-5.63,2.9-5.68.08-4.77.23-4.96,1.09-6.03a23.217,23.217,0,0,0,2.57-3.87c.97-1.79.79-7.03-.06-8.38m-3.4,6.53a19.278,19.278,0,0,1-2.16,3.27c-1.55,1.93-1.86,2.8-1.96,8.41a5.393,5.393,0,0,1-.25,1.33,16.633,16.633,0,0,1-2.67-4.89,21.441,21.441,0,0,0-2.08-4.18,4.349,4.349,0,0,0-3.43-1.75,3.353,3.353,0,0,1-3.02-1.9c-1.07-1.65-1.38-3.24-.87-4.48.53-1.29,1.95-2.22,4.11-2.7a2.884,2.884,0,0,1,.59-.07,2.752,2.752,0,0,1,1.18.36c1.57.72,3.26,1.26,6.6.01.81-.31,1.79-.68,2.32-.82.14.22.3.53.46.82.3.54.67,1.21,1.18,2.02a12.537,12.537,0,0,1,0,4.57m3.4-6.53c-.49-.77-.85-1.43-1.14-1.96h-.01c-.76-1.37-1.41-2.55-2.98-2.83-1.2-.22-2.41.24-4.6,1.06-2.09.79-2.69.52-3.6.1a6.064,6.064,0,0,0-4.24-.55c-3.42.76-5.87,2.54-6.89,5.03-1.01,2.46-.59,5.33,1.2,8.1a7.158,7.158,0,0,0,5.85,3.66c.23.02.45.06.68.1a17.794,17.794,0,0,1,1.65,3.4,19.75,19.75,0,0,0,4.08,6.82,3.372,3.372,0,0,0,2.48,1.21,2.921,2.921,0,0,0,1.02-.18c2.66-1.03,2.9-5.63,2.9-5.68.08-4.77.23-4.96,1.09-6.03a23.217,23.217,0,0,0,2.57-3.87c.97-1.79.79-7.03-.06-8.38m-3.4,6.53a19.278,19.278,0,0,1-2.16,3.27c-1.55,1.93-1.86,2.8-1.96,8.41a5.393,5.393,0,0,1-.25,1.33,16.633,16.633,0,0,1-2.67-4.89,21.441,21.441,0,0,0-2.08-4.18,4.349,4.349,0,0,0-3.43-1.75,3.353,3.353,0,0,1-3.02-1.9c-1.07-1.65-1.38-3.24-.87-4.48.53-1.29,1.95-2.22,4.11-2.7a2.884,2.884,0,0,1,.59-.07,2.752,2.752,0,0,1,1.18.36c1.57.72,3.26,1.26,6.6.01.81-.31,1.79-.68,2.32-.82.14.22.3.53.46.82.3.54.67,1.21,1.18,2.02a12.537,12.537,0,0,1,0,4.57m3.4-6.53c-.49-.77-.85-1.43-1.14-1.96h-.01c-.76-1.37-1.41-2.55-2.98-2.83-1.2-.22-2.41.24-4.6,1.06-2.09.79-2.69.52-3.6.1a6.064,6.064,0,0,0-4.24-.55c-3.42.76-5.87,2.54-6.89,5.03-1.01,2.46-.59,5.33,1.2,8.1a7.158,7.158,0,0,0,5.85,3.66c.23.02.45.06.68.1a17.794,17.794,0,0,1,1.65,3.4,19.75,19.75,0,0,0,4.08,6.82,3.372,3.372,0,0,0,2.48,1.21,2.921,2.921,0,0,0,1.02-.18c2.66-1.03,2.9-5.63,2.9-5.68.08-4.77.23-4.96,1.09-6.03a23.217,23.217,0,0,0,2.57-3.87c.97-1.79.79-7.03-.06-8.38m-3.4,6.53a19.278,19.278,0,0,1-2.16,3.27c-1.55,1.93-1.86,2.8-1.96,8.41a5.393,5.393,0,0,1-.25,1.33,16.633,16.633,0,0,1-2.67-4.89,21.441,21.441,0,0,0-2.08-4.18,4.349,4.349,0,0,0-3.43-1.75,3.353,3.353,0,0,1-3.02-1.9c-1.07-1.65-1.38-3.24-.87-4.48.53-1.29,1.95-2.22,4.11-2.7a2.884,2.884,0,0,1,.59-.07,2.752,2.752,0,0,1,1.18.36c1.57.72,3.26,1.26,6.6.01.81-.31,1.79-.68,2.32-.82.14.22.3.53.46.82.3.54.67,1.21,1.18,2.02a12.537,12.537,0,0,1,0,4.57m3.4-6.53c-.49-.77-.85-1.43-1.14-1.96h-.01c-.76-1.37-1.41-2.55-2.98-2.83-1.2-.22-2.41.24-4.6,1.06-2.09.79-2.69.52-3.6.1a6.064,6.064,0,0,0-4.24-.55c-3.42.76-5.87,2.54-6.89,5.03-1.01,2.46-.59,5.33,1.2,8.1a7.158,7.158,0,0,0,5.85,3.66c.23.02.45.06.68.1a17.794,17.794,0,0,1,1.65,3.4,19.75,19.75,0,0,0,4.08,6.82,3.372,3.372,0,0,0,2.48,1.21,2.921,2.921,0,0,0,1.02-.18c2.66-1.03,2.9-5.63,2.9-5.68.08-4.77.23-4.96,1.09-6.03a23.217,23.217,0,0,0,2.57-3.87c.97-1.79.79-7.03-.06-8.38m-3.4,6.53a19.278,19.278,0,0,1-2.16,3.27c-1.55,1.93-1.86,2.8-1.96,8.41a5.393,5.393,0,0,1-.25,1.33,16.633,16.633,0,0,1-2.67-4.89,21.441,21.441,0,0,0-2.08-4.18,4.349,4.349,0,0,0-3.43-1.75,3.353,3.353,0,0,1-3.02-1.9c-1.07-1.65-1.38-3.24-.87-4.48.53-1.29,1.95-2.22,4.11-2.7a2.884,2.884,0,0,1,.59-.07,2.752,2.752,0,0,1,1.18.36c1.57.72,3.26,1.26,6.6.01.81-.31,1.79-.68,2.32-.82.14.22.3.53.46.82.3.54.67,1.21,1.18,2.02a12.537,12.537,0,0,1,0,4.57m3.4-6.53c-.49-.77-.85-1.43-1.14-1.96h-.01c-.76-1.37-1.41-2.55-2.98-2.83-1.2-.22-2.41.24-4.6,1.06-2.09.79-2.69.52-3.6.1a6.064,6.064,0,0,0-4.24-.55c-3.42.76-5.87,2.54-6.89,5.03-1.01,2.46-.59,5.33,1.2,8.1a7.158,7.158,0,0,0,5.85,3.66c.23.02.45.06.68.1a17.794,17.794,0,0,1,1.65,3.4,19.75,19.75,0,0,0,4.08,6.82,3.372,3.372,0,0,0,2.48,1.21,2.921,2.921,0,0,0,1.02-.18c2.66-1.03,2.9-5.63,2.9-5.68.08-4.77.23-4.96,1.09-6.03a23.217,23.217,0,0,0,2.57-3.87c.97-1.79.79-7.03-.06-8.38m-3.4,6.53a19.278,19.278,0,0,1-2.16,3.27c-1.55,1.93-1.86,2.8-1.96,8.41a5.393,5.393,0,0,1-.25,1.33,16.633,16.633,0,0,1-2.67-4.89,21.441,21.441,0,0,0-2.08-4.18,4.349,4.349,0,0,0-3.43-1.75,3.353,3.353,0,0,1-3.02-1.9c-1.07-1.65-1.38-3.24-.87-4.48.53-1.29,1.95-2.22,4.11-2.7a2.884,2.884,0,0,1,.59-.07,2.752,2.752,0,0,1,1.18.36c1.57.72,3.26,1.26,6.6.01.81-.31,1.79-.68,2.32-.82.14.22.3.53.46.82.3.54.67,1.21,1.18,2.02a12.537,12.537,0,0,1,0,4.57" fill="#fff"/><path d="M72.672,24.87c-.49-.77-.85-1.43-1.14-1.96h-.01c-.76-1.37-1.41-2.55-2.98-2.83-1.2-.22-2.41.24-4.6,1.06-2.09.79-2.69.52-3.6.1a6.064,6.064,0,0,0-4.24-.55c-3.42.76-5.87,2.54-6.89,5.03-1.01,2.46-.59,5.33,1.2,8.1a7.158,7.158,0,0,0,5.85,3.66c.23.02.45.06.68.1a17.794,17.794,0,0,1,1.65,3.4,19.75,19.75,0,0,0,4.08,6.82,3.372,3.372,0,0,0,2.48,1.21,2.921,2.921,0,0,0,1.02-.18c2.66-1.03,2.9-5.63,2.9-5.68.08-4.77.23-4.96,1.09-6.03a23.217,23.217,0,0,0,2.57-3.87c.97-1.79.79-7.03-.06-8.38m-3.4,6.53a19.278,19.278,0,0,1-2.16,3.27c-1.55,1.93-1.86,2.8-1.96,8.41a5.393,5.393,0,0,1-.25,1.33,16.633,16.633,0,0,1-2.67-4.89,21.441,21.441,0,0,0-2.08-4.18,4.349,4.349,0,0,0-3.43-1.75,3.353,3.353,0,0,1-3.02-1.9c-1.07-1.65-1.38-3.24-.87-4.48.53-1.29,1.95-2.22,4.11-2.7a2.884,2.884,0,0,1,.59-.07,2.752,2.752,0,0,1,1.18.36c1.57.72,3.26,1.26,6.6.01.81-.31,1.79-.68,2.32-.82.14.22.3.53.46.82.3.54.67,1.21,1.18,2.02a12.537,12.537,0,0,1,0,4.57" fill="#fff"/><path d="M72.672,24.87c-.49-.77-.85-1.43-1.14-1.96h-.01c-.76-1.37-1.41-2.55-2.98-2.83-1.2-.22-2.41.24-4.6,1.06-2.09.79-2.69.52-3.6.1a6.064,6.064,0,0,0-4.24-.55c-3.42.76-5.87,2.54-6.89,5.03-1.01,2.46-.59,5.33,1.2,8.1a7.158,7.158,0,0,0,5.85,3.66c.23.02.45.06.68.1a17.794,17.794,0,0,1,1.65,3.4,19.75,19.75,0,0,0,4.08,6.82,3.372,3.372,0,0,0,2.48,1.21,2.921,2.921,0,0,0,1.02-.18c2.66-1.03,2.9-5.63,2.9-5.68.08-4.77.23-4.96,1.09-6.03a23.217,23.217,0,0,0,2.57-3.87c.97-1.79.79-7.03-.06-8.38m-3.4,6.53a19.278,19.278,0,0,1-2.16,3.27c-1.55,1.93-1.86,2.8-1.96,8.41a5.393,5.393,0,0,1-.25,1.33,16.633,16.633,0,0,1-2.67-4.89,21.441,21.441,0,0,0-2.08-4.18,4.349,4.349,0,0,0-3.43-1.75,3.353,3.353,0,0,1-3.02-1.9c-1.07-1.65-1.38-3.24-.87-4.48.53-1.29,1.95-2.22,4.11-2.7a2.884,2.884,0,0,1,.59-.07,2.752,2.752,0,0,1,1.18.36c1.57.72,3.26,1.26,6.6.01.81-.31,1.79-.68,2.32-.82.14.22.3.53.46.82.3.54.67,1.21,1.18,2.02a12.537,12.537,0,0,1,0,4.57" fill="#fff"/></g></svg>