<svg xmlns="http://www.w3.org/2000/svg" width="120.498" height="120.509" viewBox="0 0 120.498 120.509"><g transform="translate(0 0.002)"><path d="M29.614,48.124H4.51A2.511,2.511,0,0,1,2,45.614V20.51A2.511,2.511,0,0,1,4.51,18h25.1a2.511,2.511,0,0,1,2.51,2.51v25.1A2.511,2.511,0,0,1,29.614,48.124ZM7.021,43.1H27.1V23.021H7.021Z" transform="translate(8.042 72.383)" fill="#fbb03b"/><path d="M37.614,68.228H12.51a2.5,2.5,0,0,1-1.777-.738A2.53,2.53,0,0,1,10,65.7L10.3,15.5a2.511,2.511,0,0,1,2.51-2.5h24.8a2.511,2.511,0,0,1,2.51,2.51V65.718A2.511,2.511,0,0,1,37.614,68.228ZM15.036,63.207H35.1V18.021h-19.8Z" transform="translate(40.208 52.279)" fill="#fbb03b"/><path d="M45.614,88.332H20.51A2.511,2.511,0,0,1,18,85.821V10.51A2.511,2.511,0,0,1,20.51,8h25.1a2.511,2.511,0,0,1,2.51,2.51V85.821A2.511,2.511,0,0,1,45.614,88.332ZM23.021,83.311H43.1V13.021H23.021Z" transform="translate(72.374 32.175)" fill="#fbb03b"/><path d="M23.729,59.445a2.521,2.521,0,0,1-1.777-.733L3.9,40.652a2.51,2.51,0,0,1-.09-3.454L18.6,20.775C29.106,8.64,45.775.276,60.043.01a2.37,2.37,0,0,1,1.823.733A2.537,2.537,0,0,1,62.6,2.565C62.333,16.834,53.968,33.5,41.793,44.041L25.406,58.8a2.473,2.473,0,0,1-1.677.643ZM9.133,38.79,23.824,53.48l14.65-13.2C48.9,31.258,56.258,17.477,57.423,5.186,45.132,6.351,31.355,13.711,22.363,24.1Z" transform="translate(12.713 0)" fill="#fff7eb"/><path d="M13.46,39.195a2.463,2.463,0,0,1-.683-.1,2.524,2.524,0,0,1-1.762-1.833L7.465,22.456a2.512,2.512,0,0,1,4.885-1.17l2.355,9.836c4.363-6.823,5.232-15.554,5.322-20.66a2.511,2.511,0,0,1,5.021.085c-.211,11.879-3.7,21.79-9.816,27.91a2.514,2.514,0,0,1-1.772.738Z" transform="translate(29.739 32.159)" fill="#fff7eb"/><path d="M18.115,21.743a2.35,2.35,0,0,1-.587-.07L2.717,18.123a2.509,2.509,0,0,1-1.195-4.212c6.12-6.12,16.031-9.6,27.915-9.816A2.474,2.474,0,0,1,31.988,6.56a2.512,2.512,0,0,1-2.465,2.556c-5.111.09-13.837.959-20.66,5.322L18.7,16.793a2.509,2.509,0,0,1-.582,4.95Z" transform="translate(3.178 16.439)" fill="#fff7eb"/><path d="M2.511,36.153A2.542,2.542,0,0,1,.734,35.42a2.507,2.507,0,0,1-.628-2.5c.828-2.771,5.136-16.759,8.51-20.133A10.43,10.43,0,0,1,23.367,27.542C20,30.916,6.006,35.219,3.234,36.047a2.571,2.571,0,0,1-.723.105ZM15.992,14.759a5.394,5.394,0,0,0-3.826,1.582c-1.426,1.426-3.876,7.712-5.794,13.44,5.729-1.918,12.02-4.368,13.44-5.789a5.41,5.41,0,0,0-3.821-9.233Z" transform="translate(0 39.168)" fill="#fff7eb"/></g></svg>