<svg xmlns="http://www.w3.org/2000/svg" xmlns:xlink="http://www.w3.org/1999/xlink" width="143.084" height="220.445" viewBox="0 0 143.084 220.445"><defs><clipPath id="a"><rect width="143.084" height="220.445" fill="none"/></clipPath></defs><g transform="translate(-555.473 -1453.917)"><g transform="translate(555.473 1453.917)"><g clip-path="url(#a)"><path d="M54.388,137.786H39.731q-12.676,0-25.351,0C5.83,137.769.024,132.06.018,123.533q-.036-54.648,0-109.3C.026,5.726,5.86.029,14.422.027Q43.356.021,72.289,0a3.886,3.886,0,0,1,3.046,1.254q12.028,12.13,24.158,24.161a4.079,4.079,0,0,1,1.347,3.193q-.071,26.268-.031,52.536c0,3.385,2.719,5.071,5.718,3.541.98-.5,1.914-1.1,2.917-1.549,1.811-.808,2.82-.465,3.8,1.287.6,1.066,1.078,2.2,1.609,3.3a3.105,3.105,0,0,0,3.78,1.823c.9-.182,1.8-.365,2.705-.522,2.781-.483,3.743.208,4.127,2.957.135.97.23,1.946.376,2.914a3.06,3.06,0,0,0,2.821,2.9c1.212.158,2.43.3,3.627.544,2.17.44,2.748,1.286,2.443,3.5-.142,1.03-.344,2.052-.551,3.071a3.324,3.324,0,0,0,2.148,4.13c1.065.461,2.113.971,3.135,1.521a2.447,2.447,0,0,1,1.134,3.567c-.442.939-.976,1.835-1.462,2.754-1.286,2.432-1.154,3.279.8,5.164.749.722,1.54,1.4,2.246,2.166a2.545,2.545,0,0,1-.019,3.9c-.766.791-1.591,1.523-2.373,2.3-1.78,1.764-1.908,2.632-.733,4.879.51.975,1.077,1.922,1.546,2.915a2.452,2.452,0,0,1-1.159,3.56c-.912.5-1.868.913-2.8,1.369-2.42,1.183-2.844,1.994-2.408,4.661.158.966.4,1.92.523,2.889.246,1.994-.356,2.862-2.308,3.276-1.015.215-2.061.277-3.09.426-2.556.369-3.252,1.072-3.589,3.6-.057.425-.1.851-.164,1.275-.569,4.074-.865,4.327-5.031,4.088l18.125,47.76-16.143-5.528-8.4,14.857L97.519,176.662,80.883,220.433c-1.836-3.239-3.482-6.138-5.124-9.041-.813-1.438-1.718-2.835-2.4-4.334-.6-1.314-1.3-1.4-2.571-.939-4.645,1.685-9.336,3.247-14.456,5.009l18.038-47.536c-.174-.16-.266-.312-.342-.3-3.576.33-4.144-.131-4.555-3.7-.077-.668-.2-1.332-.268-2a3.158,3.158,0,0,0-3.027-3.118c-1.152-.153-2.317-.247-3.455-.47-2.08-.409-2.673-1.228-2.429-3.356.14-1.214.4-2.414.619-3.617a2.947,2.947,0,0,0-1.739-3.471c-.876-.437-1.77-.837-2.646-1.272-2.407-1.194-2.681-1.74-2.143-4.492m2.51-5.5c-.973-1.058-1.5-1.711-2.112-2.284-3.816-3.6-3.825-4.024-.041-7.61,2.41-2.284,2.525-3,.943-5.876-2.513-4.561-2.4-4.909,2.234-7.1,3.064-1.449,3.406-2.118,2.779-5.442-.947-5.018-.723-5.317,4.45-5.956,3.116-.385,3.723-.977,4.17-4.07.794-5.494.887-5.561,6.393-4.546,2.884.531,3.613.157,4.9-2.52,2.425-5.051,2.557-5.094,7.435-2.442A4.852,4.852,0,0,0,95.3,80.077q.006-24.607,0-49.215c0-.649-.056-1.3-.094-2.142H93.056c-4.591,0-9.183.014-13.774,0-4.561-.018-7.159-2.606-7.186-7.181-.028-4.652-.092-9.307.038-13.955.049-1.773-.569-2.108-2.192-2.1-18.426.051-36.852.028-55.278.035-5.929,0-9.177,3.258-9.178,9.218q-.01,54.174,0,108.347c0,5.972,3.233,9.2,9.175,9.2q19.926.008,39.852,0H56.9M97.5,89.508A36.644,36.644,0,1,0,134.186,126,36.727,36.727,0,0,0,97.5,89.508" transform="translate(0 0)" fill="#969485"/><g transform="translate(14.387 44.984)"><g transform="translate(3 -12)"><path d="M179.643,206.617c-.638-1.065-7.132-4.151-16.605-6.068-3.832,4.259-3.832,5.962-3.938,6.6s1.277,2.448,2.661,4.257c2.555,3.407,3.3,4.046,3.726,5.109.744,1.811-.533,6.282-1.384,10.22,0-.106-2.342-8.622-3.3-14.052a1.262,1.262,0,0,1,0-.744c-5.749-.533-9.687-.746-10.325,2.234-2.661,0-3.94.746-4.259,1.279-.638,1.171.108,3.513.638,4.684.427-.959,2.661-.746,3.407-.746.425.107.425.213.533.533v11.391h-6.92l-5.853,16.073c2.661,1.277,5.641,2.342,7.451,2.342s6.28-2.342,6.918-2.342c.533,0,5,2.342,6.812,2.342s4.684-.958,7.453-2.342L160.8,231.313h-6.92V220.348c-.106-.638-.425-.958-.638-.958l3.407-.106c-.533-1.917-1.171-3.407-2.13-3.513a3.665,3.665,0,0,1,.852-.958h-2.661c.213-1.384,3.726-.959,5.216-.746,1.49,7.664,4.471,18.1,4.576,18.2s2.555,1.063,2.769,1.171A72.577,72.577,0,0,0,169,218.965c1.811.638,1.171,2.98.746,5.428-2.023,12.454-3.726,16.286-4.046,18.628a12.888,12.888,0,0,0,3.088-.958,45.279,45.279,0,0,0,1.809-4.79c1.063-3.407,2.661-11.923,2.661-15.328a2.949,2.949,0,0,0-1.917-2.236,9.718,9.718,0,0,0,.852-1.809,10.45,10.45,0,0,0,.746-2.342c.744.213,1.277.533,1.383,1.279.427,3.3.213,3.511-.212,9.579,0,1.809-.746,5.747-1.384,9.793-1.277,7.239-2.555,10.431-2.555,11.6a21.271,21.271,0,0,0,3.621-1.383,52.1,52.1,0,0,0,2.554-9.154c.427-2.342.638-4.578,1.065-6.92a54.257,54.257,0,0,0,.638-8.941c0-3.938.533-3.938-2.448-5.428a9.539,9.539,0,0,0,.638-5.855c-.533-1.065-1.065-1.065-3.619-.958.852.958.638,2.554.425,3.619-.533-.427-.213-1.171-2.98-1.065-.425-4.471-1.277-4.9-1.277-5.109-.427-.533-2.661-.213-3.3,0,.531.425,1.49,3.726,1.063,5.216-.213-.427-4.046-4.791-3.832-5.643a9.33,9.33,0,0,1,1.809-2.554c4.47.958,12.029,3.725,12.561,4.576a19.709,19.709,0,0,1,1.171,3.94A86.705,86.705,0,0,1,179,229.929c-.425,9.579-1.7,14.9-1.49,14.69a9.861,9.861,0,0,0,3.832-3.088c.638-1.6.852-7.132,1.065-12.241-.108-5-.638-11.391-.852-13.838-.746-5.961-1.171-7.558-1.917-8.835m-34.276,39.811c-1.383,0-3.405-.213-3.405-.213l3.405-10.112,3.194,10.112c0-.106-1.915.213-3.194.213m17.138-.319s-2.021.212-3.405.212c-1.171,0-3.194-.212-3.194-.212L159.1,236Zm-8.833-7.772V234.4h2.98l-4.472,12.56-4.471-12.454h2.98v2.769s0,.212.108.212a1.707,1.707,0,0,0,.533.213Zm.319-20.543H148.88c-.425-1.279,0-1.6,1.171-1.7,2.023-.106,3.832-.106,3.94,1.7m14.583-5.536c1.809-.213,1.065,3.086.532,4.47a17.942,17.942,0,0,0-2.448-4.045,5.577,5.577,0,0,1,1.915-.425" transform="translate(-127.072 -200.227)" fill="#969583"/><path d="M139.894,240.5c.852-1.065,4.046-4.257,4.576-6.068a58.294,58.294,0,0,0,1.065-8.408,39.316,39.316,0,0,0-4.79,3.938,19.5,19.5,0,0,0-1.7,2.13,7.31,7.31,0,0,1,.852-5.111c1.065-1.809,4.9-5.109,5.428-6.493.852-2.234.746-4.151,1.384-6.493a22.1,22.1,0,0,0-7.345,4.578c-.106-2.555.638-4.471,2.342-5.749a25.085,25.085,0,0,1,7.77-3.619c1.811-.532,4.791-1.065,6.174-1.809,2.661-1.277,5.216-5.109,5.855-7.026a19.82,19.82,0,0,0-7.132,1.065,4.672,4.672,0,0,0-2.129,2.448c-.533.746-1.065,1.6-1.49,2.236a7.758,7.758,0,0,1-4.684,3.405,9.112,9.112,0,0,0,2.129-2.875,34.313,34.313,0,0,0,1.7-5.215,19.433,19.433,0,0,0-4.471,1.383,4.509,4.509,0,0,0-2.769,2.342c-1.277,1.917-.852,7.453-3.405,9.474.106-2.873.744-5.961-.213-9.474-5.109,2.13-6.174,3.94-5.747,6.068.531,2.98,3.725,4.257,5.109,6.812a4.311,4.311,0,0,1,.638,1.809,6.581,6.581,0,0,0-.638,4.259,27.782,27.782,0,0,0-2.023-3.407c-1.49-1.917-4.471-5.109-4.471-5.109-.638,7.983.425,9.579.744,10.218,1.065,1.7,4.684,4.259,5.536,5.961a6.972,6.972,0,0,1,.533,1.065c.106.213-.744,1.277-.638,2.767.106.533.213,1.065.425,1.811A41.939,41.939,0,0,0,135.849,234a20.387,20.387,0,0,0-4.044-3.513,53.547,53.547,0,0,0,.531,6.068c.213,2.234.427,4.257,2.342,6.28,1.49,1.6,6.707,3.726,7.772,4.151a16.692,16.692,0,0,0-.746-2.448,26.677,26.677,0,0,1-1.809-4.046" transform="translate(-131.71 -200.364)" fill="#969583"/></g></g></g></g><text transform="translate(672.167 1588.267)" fill="#b2913a" font-size="25" font-family="Montserrat-Bold, Montserrat" font-weight="700" letter-spacing="0.044em"><tspan x="-37.025" y="0">EA</tspan></text></g></svg>