<svg xmlns="http://www.w3.org/2000/svg" width="199.218" height="33.105" viewBox="0 0 199.218 33.105"><g transform="translate(-82.15 -52.447)"><g transform="translate(-12.872 -24.845)" style="isolation:isolate"><g transform="translate(95.021 77.293)"><g transform="translate(0)"><path d="M123.285,82.142A16.551,16.551,0,0,0,95.3,90.848s-.005.005-.007.009c-.022.114-.034.23-.054.343-.025.152-.051.3-.07.456-.027.2-.047.409-.067.615s-.034.383-.045.575c-.013.222-.025.445-.031.667,0,.134,0,.268,0,.4,0,.19,0,.38.009.569.005.136.013.269.022.4.013.193.027.387.047.578.013.127.025.255.04.381.025.212.058.423.09.635.016.107.031.213.051.318q.084.475.2.944c1.612-10.469,14.095-9.268,20.9-8.7,7.392.618,8.91-4.9,6.9-6.9Z" transform="translate(-95.021 -77.293)" fill="#fff"/><path d="M130.8,156.822c.222-.027.445-.067.667-.1.206-.034.414-.063.62-.1s.439-.1.66-.159c.2-.051.407-.094.609-.152.286-.083.568-.183.848-.28.331-.114.656-.242.98-.378.192-.08.383-.155.573-.242.212-.1.419-.212.627-.32.183-.1.367-.186.548-.289.206-.118.407-.246.607-.372.177-.11.354-.221.526-.338.2-.134.389-.278.582-.421.107-.08.219-.152.325-.235-.016.009-.034.016-.051.024a16.079,16.079,0,0,0,4.319-5.02c-4.3,4.577-11.765,6.737-16.392,4.185-5.007-2.759-4.758-7.01,1.757-6.886,3.785.072,6.49.295,9.409-.367a8.423,8.423,0,0,0,6.215-10.846q-.073-.214-.152-.407c-1.719,3.581-5.752,5.465-10.814,5.04q-.5-.041-1.025-.087c-8.529-.75-15.481-.009-16.223,7.408-.257,2.58,1.486,6.088,4.147,8.082h0c.381.233.772.447,1.168.645.132.067.268.121.4.184.266.125.533.249.8.36.163.067.329.123.494.183.246.09.492.181.741.259.179.056.36.1.541.155.239.067.477.13.718.186.19.043.38.081.571.117.235.045.47.087.705.123.2.029.394.054.593.076.231.025.465.047.7.063.2.014.4.025.6.033.23.007.459.007.691.005.2,0,.409,0,.613-.013.226-.011.452-.029.68-.049.206-.018.414-.033.618-.058Z" transform="translate(-112.201 -123.839)" fill="#fff"/></g></g></g><g transform="translate(40.034 -130.596)" style="isolation:isolate"><g transform="translate(91.65 187.52)"><path d="M104.758,210.619a1.9,1.9,0,0,1-1.625-.835l-6.29-8.531L95.595,202.5v6.145a1.95,1.95,0,0,1-1.972,1.972,1.887,1.887,0,0,1-1.379-.567,1.915,1.915,0,0,1-.593-1.406V190.7a1.972,1.972,0,0,1,1.972-1.968,1.966,1.966,0,0,1,1.4.571,1.936,1.936,0,0,1,.571,1.4v6.523l7.762-7.762a2.589,2.589,0,0,1,.76-.558,1.938,1.938,0,0,1,.8-.171,1.663,1.663,0,0,1,1.432.641,1.836,1.836,0,0,1,.321,1.379,2.4,2.4,0,0,1-.659,1.313l-6.413,6.44,6.594,8.974a1.986,1.986,0,0,1,.378,1.379,2.1,2.1,0,0,1-.518,1.208,1.674,1.674,0,0,1-1.291.558Z" transform="translate(-91.65 -188.198)" fill="#fff"/><path d="M138.138,209.941a10.589,10.589,0,0,1-7.7-3.242,11.155,11.155,0,0,1-2.3-3.571,11.673,11.673,0,0,1-.826-4.41,11.437,11.437,0,0,1,.826-4.371,11.146,11.146,0,0,1,2.3-3.554,10.765,10.765,0,0,1,3.435-2.4,10.471,10.471,0,0,1,4.27-.874,10.938,10.938,0,0,1,3.712.567,10.768,10.768,0,0,1,3.123,1.841,2.038,2.038,0,0,1,.452.461,1.582,1.582,0,0,1,.25.549,2.529,2.529,0,0,1,.057.545,1.674,1.674,0,0,1-.549,1.27,1.971,1.971,0,0,1-1.217.527c-.048,0-.1,0-.145,0a2,2,0,0,1-1.248-.461l-.022-.018a7.359,7.359,0,0,0-1.876-1.2,6.557,6.557,0,0,0-2.535-.4,6.42,6.42,0,0,0-2.693.58,7.215,7.215,0,0,0-2.24,1.617,7.487,7.487,0,0,0-1.511,2.4,7.864,7.864,0,0,0-.54,2.921,8,8,0,0,0,.54,2.948,7.535,7.535,0,0,0,1.511,2.4,7.067,7.067,0,0,0,2.236,1.6,6.516,6.516,0,0,0,2.7.571,6.425,6.425,0,0,0,2.346-.426,9.29,9.29,0,0,0,2.179-1.208,2.051,2.051,0,0,1,1.2-.426c.048,0,.1,0,.149,0a1.769,1.769,0,0,1,1.16.553,1.846,1.846,0,0,1,.483,1.327,1.926,1.926,0,0,1-.154.747,2.024,2.024,0,0,1-.448.655l-.022.022-.026.022a11.271,11.271,0,0,1-3.233,1.819,10.789,10.789,0,0,1-3.633.619Z" transform="translate(-111.645 -187.52)" fill="#fff"/><path d="M202.718,209.941a10.589,10.589,0,0,1-7.7-3.242,11.156,11.156,0,0,1-2.3-3.571,11.673,11.673,0,0,1-.826-4.41,11.438,11.438,0,0,1,.826-4.371,11.147,11.147,0,0,1,2.3-3.554,10.765,10.765,0,0,1,3.435-2.4,10.471,10.471,0,0,1,4.27-.874,10.938,10.938,0,0,1,3.712.567,10.768,10.768,0,0,1,3.123,1.841,2.038,2.038,0,0,1,.452.461,1.658,1.658,0,0,1,.25.549,2.528,2.528,0,0,1,.057.545,1.712,1.712,0,0,1-.54,1.274,1.915,1.915,0,0,1-1.256.536h-.1a1.976,1.976,0,0,1-1.278-.483,7.432,7.432,0,0,0-1.885-1.212,6.557,6.557,0,0,0-2.535-.4,6.419,6.419,0,0,0-2.693.58,7.215,7.215,0,0,0-2.24,1.617,7.487,7.487,0,0,0-1.511,2.4,7.864,7.864,0,0,0-.54,2.921,8,8,0,0,0,.54,2.948,7.535,7.535,0,0,0,1.511,2.4,7.067,7.067,0,0,0,2.236,1.6,6.516,6.516,0,0,0,2.7.571,6.425,6.425,0,0,0,2.346-.426,8.827,8.827,0,0,0,1.331-.646V201.37h-3.066a2.025,2.025,0,0,1-1.371-.492,1.753,1.753,0,0,1,0-2.644,2.022,2.022,0,0,1,1.371-.488h4.959a1.886,1.886,0,0,1,1.406.567,1.954,1.954,0,0,1,.536,1.406v6.334a2.128,2.128,0,0,1-.127.72,1.737,1.737,0,0,1-.5.7,10.346,10.346,0,0,1-3.246,1.854,11.11,11.11,0,0,1-3.642.6Z" transform="translate(-147.857 -187.52)" fill="#fff"/><path d="M243.713,210.614a4.088,4.088,0,0,1-2.412-.747,4.819,4.819,0,0,1-1.6-1.972,6.658,6.658,0,0,1-.558-2.781V190.64a1.92,1.92,0,1,1,3.839,0v14.474a2.6,2.6,0,0,0,.29,1.318c.2.343.369.343.444.343h.663a1.7,1.7,0,0,1,1.3.571,1.96,1.96,0,0,1,.483,1.349,1.728,1.728,0,0,1-.747,1.432,2.736,2.736,0,0,1-1.652.488h-.053Z" transform="translate(-174.351 -188.193)" fill="#fff"/><path d="M262.871,218.262a8.113,8.113,0,0,1-4.085-1.019,7.4,7.4,0,0,1-2.807-2.82,8.187,8.187,0,0,1-1.019-4.1,8.287,8.287,0,0,1,1.019-4.125,7.4,7.4,0,0,1,2.807-2.82,8.113,8.113,0,0,1,4.085-1.019,8.014,8.014,0,0,1,4.059,1.019,7.428,7.428,0,0,1,2.807,2.82,8.863,8.863,0,0,1,.018,8.219,7.345,7.345,0,0,1-2.794,2.825,8.113,8.113,0,0,1-4.085,1.019Zm0-12.326a4.069,4.069,0,0,0-2.135.553,3.924,3.924,0,0,0-1.454,1.537,4.79,4.79,0,0,0-.54,2.3,4.711,4.711,0,0,0,.536,2.289,3.917,3.917,0,0,0,1.454,1.524,4.1,4.1,0,0,0,2.135.553,4.058,4.058,0,0,0,2.135-.553,3.871,3.871,0,0,0,1.441-1.52,5.279,5.279,0,0,0,0-4.6,3.838,3.838,0,0,0-1.436-1.533A4.1,4.1,0,0,0,262.871,205.936Z" transform="translate(-183.222 -195.841)" fill="#fff"/><path d="M305.281,210.485a7.681,7.681,0,0,1-6.822-3.905,8.253,8.253,0,0,1-1.059-4.05v-12.1a1.863,1.863,0,0,1,.567-1.406,1.92,1.92,0,0,1,1.379-.536,1.954,1.954,0,0,1,1.4.545,1.918,1.918,0,0,1,.545,1.4v5.746a7.406,7.406,0,0,1,1.384-.883,7.3,7.3,0,0,1,6.932.347,7.5,7.5,0,0,1,2.631,2.847,8.425,8.425,0,0,1,.958,4.033,7.978,7.978,0,0,1-1.05,4.063,7.733,7.733,0,0,1-6.866,3.9Zm0-12.326a3.936,3.936,0,0,0-2.091.562,4,4,0,0,0-1.472,1.542,5.034,5.034,0,0,0,0,4.529,4.1,4.1,0,0,0,5.662,1.564,4.084,4.084,0,0,0,1.472-1.568,4.66,4.66,0,0,0,.549-2.262,4.566,4.566,0,0,0-.549-2.254,4.2,4.2,0,0,0-1.476-1.546,3.917,3.917,0,0,0-2.1-.562Z" transform="translate(-207.019 -188.064)" fill="#fff"/><path d="M400.314,209.429a7.813,7.813,0,0,1-2.825-2.851,8,8,0,0,1-1.05-4.063,8.4,8.4,0,0,1,.958-4.033,7.5,7.5,0,0,1,2.631-2.847,7.3,7.3,0,0,1,6.932-.347,7.4,7.4,0,0,1,1.384.883v-5.746a1.866,1.866,0,0,1,1.946-1.946,1.885,1.885,0,0,1,1.946,1.942v12.1a8.241,8.241,0,0,1-1.059,4.05,7.691,7.691,0,0,1-2.811,2.855,7.774,7.774,0,0,1-4.011,1.05,7.9,7.9,0,0,1-4.041-1.05Zm1.937-10.718a4.2,4.2,0,0,0-1.476,1.546,4.553,4.553,0,0,0-.549,2.253,4.635,4.635,0,0,0,.549,2.262,4.084,4.084,0,0,0,1.472,1.568,4.194,4.194,0,0,0,4.2,0,3.966,3.966,0,0,0,1.467-1.564,4.773,4.773,0,0,0,.54-2.267,4.666,4.666,0,0,0-.536-2.262,4,4,0,0,0-1.472-1.542,4.194,4.194,0,0,0-4.2,0Z" transform="translate(-262.553 -188.058)" fill="#fff"/></g><g transform="translate(201.339 189.514)" style="isolation:isolate"><g transform="translate(0 0)"><path d="M113.084,80.392A10.578,10.578,0,0,0,95.2,85.956l0,.006c-.014.073-.022.147-.035.22-.016.1-.032.193-.045.291-.017.131-.03.261-.043.393s-.022.245-.029.367c-.008.142-.016.284-.02.426,0,.085,0,.171,0,.255,0,.121,0,.243.006.364,0,.087.008.172.014.259.008.124.017.247.03.37.008.081.016.163.025.244.016.135.037.27.058.406.01.068.02.136.032.2q.054.3.126.6c1.031-6.69,9.008-5.923,13.357-5.559,4.724.4,5.694-3.129,4.412-4.412Z" transform="translate(-95.021 -77.293)" fill="#fff"/><path d="M125.456,148.625c.142-.017.284-.043.426-.066s.265-.04.4-.067.281-.067.422-.1.26-.06.389-.1c.183-.053.363-.117.542-.179.211-.073.419-.155.626-.241.122-.051.245-.1.366-.155s.268-.135.4-.2c.117-.061.235-.119.35-.185.132-.075.26-.157.388-.238s.226-.141.336-.216c.126-.086.248-.178.372-.269.068-.051.14-.1.208-.15l-.032.015a10.277,10.277,0,0,0,2.76-3.208c-2.748,2.925-7.519,4.306-10.476,2.674-3.2-1.763-3.041-4.48,1.123-4.4a24.608,24.608,0,0,0,6.013-.235,5.383,5.383,0,0,0,3.972-6.932q-.047-.137-.1-.26c-1.1,2.289-3.676,3.492-6.911,3.221l-.655-.055c-5.451-.479-9.894-.006-10.368,4.734a6.458,6.458,0,0,0,2.65,5.165h0c.244.149.493.285.746.412.084.043.171.077.256.118.17.08.341.159.514.23.1.043.21.079.315.117.157.058.314.116.474.165.114.036.23.067.345.1.152.043.3.083.459.119.121.028.243.052.365.075.15.029.3.055.451.079.126.018.252.035.379.049.148.016.3.03.446.04.128.009.258.016.386.021.147,0,.293,0,.441,0,.131,0,.261,0,.392-.008s.289-.018.434-.031.265-.021.4-.037Z" transform="translate(-113.569 -127.546)" fill="#fff"/></g></g></g></g></svg>